<?xml version="1.0" standalone="no"?>
<!DOCTYPE svg PUBLIC "-//W3C//DTD SVG 1.1//EN" "http://www.w3.org/Graphics/SVG/1.1/DTD/svg11.dtd" >
<svg xmlns="http://www.w3.org/2000/svg" xmlns:xlink="http://www.w3.org/1999/xlink" version="1.1">
<metadata>
Created by FontForge 20170731 at Mon Oct 14 23:45:38 2013
 By Aleksey,,,
2013 published by FontShop International GmbH
</metadata>
<defs>
<font id="Mark-Black" horiz-adv-x="1200" >
  <font-face 
    font-family="Mark"
    font-weight="900"
    font-stretch="normal"
    units-per-em="2000"
    panose-1="2 0 10 0 0 0 0 0 0 0"
    ascent="1580"
    descent="-420"
    x-height="991"
    cap-height="1400"
    bbox="-1035 -507 2196 2028"
    underline-thickness="200"
    underline-position="-660"
    unicode-range="U+0020-FEFF"
  />
<missing-glyph horiz-adv-x="1130" 
d="M87 1400h956v-1400h-956v1400zM787 256v888h-444v-888h444z" />
    <glyph glyph-name="ellipsis" unicode="&#x2e;&#x2e;&#x2e;" horiz-adv-x="1721" 
d="M302 435q92 0 160.5 -68.5t68.5 -160.5q0 -94 -68.5 -163t-160.5 -69q-94 0 -163 69t-69 163q0 92 69 160.5t163 68.5zM862 435q92 0 160.5 -68.5t68.5 -160.5q0 -94 -68.5 -163t-160.5 -69q-94 0 -163 69t-69 163q0 92 69 160.5t163 68.5zM1422 435q92 0 160.5 -68.5
t68.5 -160.5q0 -94 -68.5 -163t-160.5 -69q-94 0 -163 69t-69 163q0 92 69 160.5t163 68.5z" />
    <glyph glyph-name=".notdef" horiz-adv-x="1130" 
d="M87 1400h956v-1400h-956v1400zM787 256v888h-444v-888h444z" />
    <glyph glyph-name=".null" unicode="&#xe000;" horiz-adv-x="0" 
 />
    <glyph glyph-name="nonmarkingreturn" horiz-adv-x="666" 
 />
    <glyph glyph-name="space" unicode=" " horiz-adv-x="410" 
 />
    <glyph glyph-name="exclam" unicode="!" horiz-adv-x="601" 
d="M470 518h-336l-40 882h416zM302 413q88 0 153 -65t65 -153q0 -89 -65 -155t-153 -66q-89 0 -155 66t-66 155q0 88 66 153t155 65z" />
    <glyph glyph-name="quotedbl" unicode="&#x22;" horiz-adv-x="1139" 
d="M496 1440v-694h-356v694h356zM999 1440v-694h-356v694h356z" />
    <glyph glyph-name="numbersign" unicode="#" horiz-adv-x="1453" 
d="M401 1118l60 282h322l-60 -282h183l60 282h322l-60 -282h165l-63 -294h-165l-51 -241h165l-62 -294h-166l-61 -289h-322l61 289h-183l-61 -289h-322l61 289h-164l62 294h165l51 241h-165l63 294h165zM609 583h183l51 241h-183z" />
    <glyph glyph-name="dollar" unicode="$" horiz-adv-x="1400" 
d="M1114 954q-199 111 -395 111q-85 0 -136.5 -22t-53.5 -65q-1 -16 6 -29t23.5 -22.5t32.5 -16.5t46 -13.5t51 -10.5t60 -10.5t61 -10.5l51 -9q207 -36 316.5 -135t109.5 -249q0 -186 -114 -296t-315 -144v-189h-275v184q-299 27 -486 158l174 285q113 -66 216 -101
t230 -35q85 0 136 22.5t53 69.5q1 26 -11 43t-52.5 30t-70.5 19.5t-109 19.5q-11 2 -17 3l-59 10q-227 39 -333.5 136t-101.5 266q4 166 121 278.5t310 140.5v179h275v-180q117 -13 209.5 -44.5t201.5 -85.5z" />
    <glyph glyph-name="percent" unicode="%" horiz-adv-x="1970" 
d="M436 1426q170 0 283 -110.5t113 -278.5t-113 -278.5t-283 -110.5t-283 110.5t-113 278.5t113 278.5t283 110.5zM436 1172q-55 0 -91 -39t-36 -96t36 -96t91 -39t91 39t36 96t-36 96t-91 39zM629 0h-341l1043 1400h341zM1534 752q170 0 283 -110.5t113 -278.5t-113 -278.5
t-283 -110.5t-283 110.5t-113 278.5q0 165 113 277t283 112zM1534 498q-55 0 -91 -39t-36 -96t36 -96t91 -39t91 39t36 96t-36 96t-91 39z" />
    <glyph glyph-name="ampersand" unicode="&#x26;" horiz-adv-x="1508" 
d="M1036 0l-111 107q-184 -133 -394 -133q-221 0 -347 104.5t-126 273.5q0 199 229 375q-77 84 -112.5 156t-35.5 161q0 172 124.5 277t330.5 105q204 0 328.5 -105t124.5 -277q0 -95 -69.5 -177.5t-188.5 -164.5l145 -143l213 250l250 -191l-238 -280l344 -338h-467z
M569 286q61 0 128 41l-187 182q-72 -64 -72 -115t34.5 -79.5t96.5 -28.5zM488 1034q0 -24 17 -48.5t68 -72.5q63 40 95.5 70.5t32.5 58.5q0 33 -30 56.5t-77 23.5q-50 0 -78 -23t-28 -65z" />
    <glyph glyph-name="quotesingle" unicode="'" horiz-adv-x="636" 
d="M496 1440v-694h-356v694h356z" />
    <glyph glyph-name="parenleft" unicode="(" horiz-adv-x="833" 
d="M793 1155q-363 -175 -363 -587q0 -415 363 -587l-101 -308q-282 94 -457 334.5t-175 560.5t174.5 559.5t457.5 335.5z" />
    <glyph glyph-name="parenright" unicode=")" horiz-adv-x="833" 
d="M40 -19q363 172 363 587q0 412 -363 587l101 308q283 -96 457.5 -335.5t174.5 -559.5t-175 -560.5t-457 -334.5z" />
    <glyph glyph-name="asterisk" unicode="*" horiz-adv-x="946" 
d="M344 1218l-11 222h280l-11 -222l207 79l87 -266l-215 -58l140 -173l-227 -164l-121 185l-121 -185l-227 164l139 173l-214 58l87 266z" />
    <glyph glyph-name="plus" unicode="+" 
d="M454 51v337h-334v286h334v337h292v-337h334v-286h-334v-337h-292z" />
    <glyph glyph-name="comma" unicode="," horiz-adv-x="590" 
d="M526 402l-177 -694h-294l88 694h383z" />
    <glyph glyph-name="hyphen" unicode="-" horiz-adv-x="750" 
d="M680 381h-610v300h610v-300z" />
    <glyph glyph-name="period" unicode="." horiz-adv-x="601" 
d="M302 435q92 0 160.5 -68.5t68.5 -160.5q0 -94 -68.5 -163t-160.5 -69q-94 0 -163 69t-69 163q0 92 69 160.5t163 68.5z" />
    <glyph glyph-name="slash" unicode="/" horiz-adv-x="1092" 
d="M303 -200h-363l849 1740h363z" />
    <glyph glyph-name="zero" unicode="0" 
d="M605 1426q122 0 223.5 -45t178 -132.5t119 -228t42.5 -320.5t-42.5 -320.5t-119 -228t-178 -132.5t-223.5 -45q-124 0 -227.5 45t-181 132.5t-121 228t-43.5 320.5t43.5 320.5t121 228t181 132.5t227.5 45zM605 1072q-87 0 -140 -92t-53 -280t53 -280t140 -92
q81 0 132 92t51 280t-51 280t-132 92z" />
    <glyph glyph-name="one" unicode="1" 
d="M468 350v585l-296 -103v358l665 232v-1072h279v-350h-933v350h285z" />
    <glyph glyph-name="two" unicode="2" 
d="M55 1174q216 252 537 252q225 0 360.5 -123.5t135.5 -330.5q0 -122 -51.5 -221t-181.5 -220l-200 -190h461v-341h-982v289l476 449q95 90 95 187q0 66 -45.5 106.5t-113.5 40.5q-80 0 -146.5 -40.5t-135.5 -112.5z" />
    <glyph glyph-name="three" unicode="3" 
d="M551 1426q236 0 385 -112t149 -294q0 -218 -199 -315q110 -45 168.5 -125.5t58.5 -188.5q0 -103 -46 -184t-125 -131t-177 -76t-207 -26q-328 0 -504 207l204 240q117 -120 279 -120q84 0 138.5 32t54.5 92q0 58 -62 90t-156 32h-153v320h157q83 0 136.5 31.5t53.5 87.5
t-45 84.5t-124 28.5q-161 0 -283 -126l-198 244q199 209 495 209z" />
    <glyph glyph-name="four" unicode="4" 
d="M1012 566h159v-341h-159v-225h-369v225h-614v253l429 922h402l-391 -834h174v124l110 241h259v-365z" />
    <glyph glyph-name="five" unicode="5" 
d="M1031 1063h-532l-5 -171h118q241 0 374.5 -112t133.5 -310q0 -223 -152.5 -359.5t-396.5 -136.5q-156 0 -291 51t-222 131l168 279q54 -47 151 -87.5t192 -40.5q82 0 125.5 35t43.5 104q0 127 -216 127h-355l19 827h845v-337z" />
    <glyph glyph-name="six" unicode="6" 
d="M651 938q240 -4 372 -135.5t132 -330.5q0 -142 -73.5 -256.5t-201.5 -178t-286 -63.5q-156 0 -284 62.5t-201.5 173.5t-73.5 249q0 189 146 406l359 535h442zM594 634q-75 0 -122.5 -47t-47.5 -119q0 -74 47.5 -121t122.5 -47t124 47.5t49 120.5q0 71 -49 118.5
t-124 47.5z" />
    <glyph glyph-name="seven" unicode="7" 
d="M1121 1110l-529 -1110h-442l533 1059h-596v341h1034v-290z" />
    <glyph glyph-name="eight" unicode="8" 
d="M600 1426q149 0 270 -47.5t194 -141.5t73 -217q0 -112 -56.5 -190t-152.5 -123q245 -100 245 -325q0 -125 -78 -219t-207 -141.5t-288 -47.5t-288 47.5t-206.5 141.5t-77.5 219q0 120 66.5 201t177.5 124q-208 98 -208 313q0 123 73 217t193.5 141.5t269.5 47.5zM600 570
q-70 0 -118.5 -38t-48.5 -104q0 -65 48.5 -101.5t118.5 -36.5q72 0 120 36.5t48 101.5q0 66 -48.5 104t-119.5 38zM600 1102q-62 0 -101.5 -32t-39.5 -90t40 -91.5t101 -33.5t101 33.5t40 91.5t-39.5 90t-101.5 32z" />
    <glyph glyph-name="nine" unicode="9" 
d="M550 462q-121 1 -218 38.5t-159 101t-94.5 147t-32.5 179.5q0 142 73 256.5t201 178t286 63.5q157 0 285 -62.5t201.5 -173.5t73.5 -249q0 -189 -146 -406l-359 -535h-442zM606 766q75 0 123 47t48 119q0 74 -48 121t-123 47t-123.5 -47.5t-48.5 -120.5q0 -72 48.5 -119
t123.5 -47z" />
    <glyph glyph-name="colon" unicode=":" horiz-adv-x="601" 
d="M302 1018q92 0 160.5 -68.5t68.5 -160.5q0 -94 -68.5 -163t-160.5 -69q-94 0 -163 69t-69 163q0 92 69 160.5t163 68.5zM302 435q92 0 160.5 -68.5t68.5 -160.5q0 -94 -68.5 -163t-160.5 -69q-94 0 -163 69t-69 163q0 92 69 160.5t163 68.5z" />
    <glyph glyph-name="semicolon" unicode=";" horiz-adv-x="590" 
d="M314 1018q92 0 160.5 -68.5t68.5 -160.5q0 -94 -68.5 -163t-160.5 -69q-94 0 -163 69t-69 163q0 92 69 160.5t163 68.5zM526 402l-177 -694h-294l88 694h383z" />
    <glyph glyph-name="less" unicode="&#x3c;" 
d="M1013 -9l-825 381v317l825 381v-328l-516 -211l516 -212v-328z" />
    <glyph glyph-name="equal" unicode="=" 
d="M1080 153h-960v286h960v-286zM1080 623h-960v286h960v-286z" />
    <glyph glyph-name="greater" unicode="&#x3e;" 
d="M188 1070l825 -381v-317l-825 -381v328l516 211l-516 212v328z" />
    <glyph glyph-name="question" unicode="?" horiz-adv-x="892" 
d="M135 508v373h108q117 0 172.5 22t55.5 70q0 50 -55 72t-173 23q-82 0 -138 -7l-19 353q98 12 228 12q257 0 402.5 -110.5t145.5 -301.5q0 -160 -98.5 -265.5t-285.5 -147.5l-7 -93h-336zM303 414q88 0 153 -65t65 -153q0 -89 -65 -155.5t-153 -66.5q-89 0 -155 66
t-66 155q0 88 66 153.5t155 65.5z" />
    <glyph glyph-name="at" unicode="@" horiz-adv-x="1864" 
d="M1301 422q0 -89 74 -89q133 0 133 217q0 230 -159.5 379.5t-411.5 149.5q-254 0 -412.5 -160.5t-158.5 -418.5t153 -418.5t398 -160.5q97 0 172.5 19t139.5 70l162 -211q-192 -139 -474 -139q-183 0 -341 63.5t-269 174.5t-174 267t-63 335t64.5 335t178 267t275 174.5
t349.5 63.5q187 0 347.5 -61t272 -166.5t174.5 -251t63 -310.5q0 -210 -120 -341t-313 -131q-204 0 -287 138q-74 -108 -217 -108q-151 0 -240.5 112.5t-89.5 278.5q0 106 39.5 194.5t113 142t166.5 53.5q118 0 187 -83v62h268v-447zM923 629q-46 0 -76.5 -36.5t-30.5 -93.5
t30.5 -93.5t76.5 -36.5t76 36.5t30 93.5t-30 93.5t-76 36.5z" />
    <glyph glyph-name="A" unicode="A" horiz-adv-x="1518" 
d="M1513 0h-403l-93 267h-523l-92 -267h-397l530 1400h448zM612 606h287l-143 414z" />
    <glyph glyph-name="B" unicode="B" horiz-adv-x="1349" 
d="M728 1400q275 0 409 -105t134 -297q0 -99 -50.5 -175t-135.5 -120q93 -34 153.5 -117.5t60.5 -183.5q0 -192 -132 -297t-403 -105h-664v1400h628zM480 549v-240l263 -1q165 0 165 121q0 120 -165 120h-263zM480 1090v-233h239q158 0 158 117q0 116 -157 116h-240z" />
    <glyph glyph-name="C" unicode="C" horiz-adv-x="1469" 
d="M789 1426q207 0 377 -94t262 -261l-337 -186q-103 177 -308 177q-147 0 -242.5 -101.5t-95.5 -260.5q0 -170 100 -266t239 -96q200 0 316 176l312 -218q-103 -152 -261.5 -237t-361.5 -85q-214 0 -382.5 92t-262.5 257.5t-94 376.5t94 376.5t262.5 257.5t382.5 92z" />
    <glyph glyph-name="D" unicode="D" horiz-adv-x="1494" 
d="M718 1400q328 0 527 -192t199 -508t-199 -508t-527 -192h-618v1400h618zM480 1051v-702h228q166 0 253.5 96.5t87.5 254.5q0 160 -87.5 255.5t-253.5 95.5h-228z" />
    <glyph glyph-name="E" unicode="E" horiz-adv-x="1274" 
d="M1194 0h-1094v1400h1094v-338h-714v-185h664v-338h-664v-201h714v-338z" />
    <glyph glyph-name="F" unicode="F" horiz-adv-x="1244" 
d="M1134 509h-654v-509h-380v1400h1084v-338h-704v-215h654v-338z" />
    <glyph glyph-name="G" unicode="G" horiz-adv-x="1526" 
d="M800 1426q320 0 512 -194l-268 -264q-105 103 -267 103q-148 0 -243 -103.5t-95 -267.5q0 -93 28.5 -167t76.5 -120t109.5 -70.5t129.5 -24.5q257 0 317 206h-328v278h696q8 -50 8 -126q0 -136 -38.5 -252t-104.5 -197t-153 -139t-183.5 -85.5t-196.5 -27.5
q-163 0 -302.5 54t-238 149t-154 230t-55.5 292q0 158 55.5 293t154 230t238 149t302.5 54z" />
    <glyph glyph-name="H" unicode="H" horiz-adv-x="1478" 
d="M480 882h518v518h380v-1400h-380v533h-518v-533h-380v1400h380v-518z" />
    <glyph glyph-name="I" unicode="I" horiz-adv-x="580" 
d="M480 0h-380v1400h380v-1400z" />
    <glyph glyph-name="J" unicode="J" horiz-adv-x="1091" 
d="M996 539q0 -279 -141.5 -422t-387.5 -143q-146 0 -261 44.5t-184 111.5l184 294q102 -86 225 -86q91 0 138 54.5t47 178.5v829h380v-861z" />
    <glyph glyph-name="K" unicode="K" horiz-adv-x="1423" 
d="M588 536h-108v-536h-380v1400h380v-526h110l353 526h462l-507 -683l552 -717h-467z" />
    <glyph glyph-name="L" unicode="L" horiz-adv-x="1174" 
d="M1154 0h-1054v1400h380v-1050h674v-350z" />
    <glyph glyph-name="M" unicode="M" horiz-adv-x="1815" 
d="M1715 0h-380v876l-225 -746h-405l-225 746v-876h-380v1400h527l281 -842l280 842h527v-1400z" />
    <glyph glyph-name="N" unicode="N" horiz-adv-x="1527" 
d="M1427 0h-370l-577 787v-787h-380v1400h370l577 -787v787h380v-1400z" />
    <glyph glyph-name="O" unicode="O" horiz-adv-x="1580" 
d="M790 1426q160 0 298 -55t235 -150.5t152 -230.5t55 -290t-55 -290t-152 -230.5t-235 -150.5t-298 -55t-298 55t-235 150.5t-152 230.5t-55 290t55 290t152 230.5t235 150.5t298 55zM790 1062q-153 0 -249 -101t-96 -261t96 -261t249 -101t249 101t96 261t-96 261
t-249 101z" />
    <glyph glyph-name="P" unicode="P" horiz-adv-x="1314" 
d="M480 441v-441h-380v1400h624q261 0 402 -131.5t141 -352.5q0 -217 -140 -346t-398 -129h-249zM480 1059v-285h240q72 0 117.5 37.5t45.5 104.5t-45.5 105t-117.5 38h-240z" />
    <glyph glyph-name="Q" unicode="Q" horiz-adv-x="1611" 
d="M790 1426q160 0 298 -55t235 -150.5t152 -230.5t55 -290q0 -205 -110 -371l242 -329h-448l-58 78q-169 -104 -366 -104q-160 0 -298 55t-235 150.5t-152 230.5t-55 290t55 290t152 230.5t235 150.5t298 55zM790 1062q-153 0 -249 -101t-96 -261t96 -261t249 -101
q78 0 144 28l-191 257l385 -1q7 32 7 78q0 160 -96 261t-249 101z" />
    <glyph glyph-name="R" unicode="R" horiz-adv-x="1336" 
d="M724 1400q262 0 402.5 -125t140.5 -341q0 -164 -93 -274t-269 -146l381 -514h-448l-337 497h-21v-497h-380v1400h624zM480 1059v-249h240q73 0 118 31.5t45 92.5t-45 93t-118 32h-240z" />
    <glyph glyph-name="S" unicode="S" horiz-adv-x="1356" 
d="M1113 967q-216 117 -404 117q-80 0 -130 -23t-50 -68q0 -16 7.5 -29t25 -23.5t34 -17.5t47.5 -13.5t51.5 -10.5t60.5 -10.5t60 -10.5l45 -9q436 -84 436 -410q0 -103 -33.5 -186.5t-90.5 -138t-134.5 -91.5t-161.5 -53t-177 -16q-395 0 -639 174l186 310q57 -34 92 -52
t95.5 -43.5t127.5 -37t143 -11.5q81 0 129 24t48 73q0 26 -14 43.5t-54.5 31t-76 20.5t-116.5 21l-53 9q-241 42 -348 148t-101 294q6 202 161 324.5t407 122.5q157 0 290 -29t301 -118z" />
    <glyph glyph-name="T" unicode="T" horiz-adv-x="1216" 
d="M1196 1050h-398v-1050h-380v1050h-398v350h1176v-350z" />
    <glyph glyph-name="U" unicode="U" horiz-adv-x="1420" 
d="M1330 571q0 -287 -160 -442t-460 -155t-460 155t-160 442v829h381v-818q0 -119 63 -181.5t176 -62.5t176 62.5t63 181.5v818h381v-829z" />
    <glyph glyph-name="V" unicode="V" horiz-adv-x="1478" 
d="M963 0h-448l-510 1400h403l334 -1003l334 1003h397z" />
    <glyph glyph-name="W" unicode="W" horiz-adv-x="2180" 
d="M1772 0h-448l-234 819l-234 -819h-448l-400 1400h391l239 -939l252 939h405l252 -940l239 940h386z" />
    <glyph glyph-name="X" unicode="X" horiz-adv-x="1356" 
d="M908 705l443 -705h-430l-245 415l-244 -415h-427l443 704l-443 696h430l245 -414l244 414h427z" />
    <glyph glyph-name="Y" unicode="Y" horiz-adv-x="1428" 
d="M910 530v-530h-380v525l-528 875h436l283 -529l282 529h423z" />
    <glyph glyph-name="Z" unicode="Z" horiz-adv-x="1280" 
d="M1220 1102l-655 -764h655v-338h-1160v298l655 764h-655v338h1160v-298z" />
    <glyph glyph-name="bracketleft" unicode="[" horiz-adv-x="748" 
d="M708 -263h-608v1663h608v-316h-250v-1031h250v-316z" />
    <glyph glyph-name="backslash" unicode="\" horiz-adv-x="1092" 
d="M-60 1540h363l849 -1740h-363z" />
    <glyph glyph-name="bracketright" unicode="]" horiz-adv-x="748" 
d="M40 1400h608v-1663h-608v316h250v1031h-250v316z" />
    <glyph glyph-name="underscore" unicode="_" horiz-adv-x="940" 
d="M945 -339h-950v256h950v-256z" />
    <glyph glyph-name="a" unicode="a" horiz-adv-x="1192" 
d="M1105 0h-342v87q-101 -113 -270 -113q-130 0 -233.5 70.5t-160.5 190t-57 262.5q0 142 56.5 261t161 189.5t234.5 70.5q167 0 269 -116v89h342v-991zM585 687q-77 0 -126.5 -53.5t-49.5 -137.5t49.5 -137.5t126.5 -53.5t126.5 53.5t49.5 137.5t-49.5 137.5t-126.5 53.5z
" />
    <glyph glyph-name="b" unicode="b" horiz-adv-x="1191" 
d="M697 1018q130 0 234.5 -70.5t161 -189.5t56.5 -261q0 -143 -57 -262.5t-160.5 -190t-233.5 -70.5q-169 0 -270 113v-87h-341v1440h356v-521q97 99 254 99zM606 687q-77 0 -126.5 -53.5t-49.5 -137.5t49.5 -137.5t126.5 -53.5t126.5 53.5t49.5 137.5t-49.5 137.5
t-126.5 53.5z" />
    <glyph glyph-name="c" unicode="c" horiz-adv-x="1043" 
d="M582 1018q286 0 445 -240l-292 -184q-62 93 -161 93q-69 0 -118.5 -51t-49.5 -140t48 -140t117 -51q101 0 164 94l293 -187q-75 -113 -187.5 -175.5t-258.5 -62.5q-237 0 -388.5 146t-151.5 376t151.5 376t388.5 146z" />
    <glyph glyph-name="d" unicode="d" horiz-adv-x="1191" 
d="M494 1018q155 0 254 -99v521h356v-1440h-341v87q-101 -113 -270 -113q-130 0 -233.5 70.5t-160.5 190t-57 262.5q0 142 56.5 261t161 189.5t234.5 70.5zM585 687q-77 0 -126.5 -53.5t-49.5 -137.5t49.5 -137.5t126.5 -53.5t126.5 53.5t49.5 137.5t-49.5 137.5
t-126.5 53.5z" />
    <glyph glyph-name="e" unicode="e" horiz-adv-x="1106" 
d="M557 1018q224 0 365.5 -145t141.5 -377q0 -59 -7 -106h-647q36 -120 178 -120q104 0 187 80l244 -204q-74 -80 -189 -126t-259 -46q-238 0 -383.5 141.5t-145.5 371.5q0 236 143 383.5t372 147.5zM559 719q-113 0 -148 -114h298q-37 114 -150 114z" />
    <glyph glyph-name="f" unicode="f" horiz-adv-x="859" 
d="M794 677h-252v-677h-356v677h-160v314h160v39q0 214 108 325t287 111q212 0 358 -117l-162 -254q-32 15 -46 21t-41 12.5t-55 6.5q-48 0 -70.5 -27t-22.5 -87v-30h252v-314z" />
    <glyph glyph-name="g" unicode="g" horiz-adv-x="1186" 
d="M493 1018q168 0 264 -114v87h342v-885q0 -246 -147.5 -386t-391.5 -140q-283 0 -468 130l126 280q135 -101 310 -101q39 0 77 11t72 33.5t54.5 62.5t20.5 93v45q-96 -108 -259 -108q-131 0 -235 67t-160 179.5t-56 249.5t56 249.5t160 179.5t235 67zM582 695
q-74 0 -122.5 -49t-48.5 -124t48.5 -124t122.5 -49q73 0 120 49t47 124t-47 124t-120 49z" />
    <glyph glyph-name="h" unicode="h" horiz-adv-x="1130" 
d="M443 913q84 105 251 105q156 0 255 -102t99 -271v-645h-356v533q0 74 -32.5 113t-92.5 39q-55 0 -89.5 -38t-34.5 -116v-531h-356v1442h356v-529z" />
    <glyph glyph-name="i" unicode="i" horiz-adv-x="530" 
d="M443 0h-356v991h356v-991zM264 1485q87 0 145.5 -58.5t58.5 -145.5t-58.5 -145.5t-145.5 -58.5t-145.5 58.5t-58.5 145.5t58.5 145.5t145.5 58.5z" />
    <glyph glyph-name="j" unicode="j" horiz-adv-x="530" 
d="M443 -42q0 -180 -91.5 -282t-247.5 -102q-92 0 -151 22l21 317q27 -8 58 -8q55 0 55 77v1009h356v-1033zM262 1485q87 0 145.5 -58.5t58.5 -145.5t-58.5 -145.5t-145.5 -58.5t-145.5 58.5t-58.5 145.5t58.5 145.5t145.5 58.5z" />
    <glyph glyph-name="k" unicode="k" horiz-adv-x="1113" 
d="M443 682h59l200 309h428l-347 -468l347 -523h-426l-212 369h-49v-369h-356v1440h356v-758z" />
    <glyph glyph-name="l" unicode="l" horiz-adv-x="530" 
d="M443 0h-356v1440h356v-1440z" />
    <glyph glyph-name="m" unicode="m" horiz-adv-x="1735" 
d="M1283 1018q171 0 270.5 -100.5t99.5 -272.5v-645h-356v533q0 74 -32.5 113t-92.5 39q-55 0 -89.5 -38t-34.5 -116v-531h-356v533q0 74 -32.5 113t-92.5 39q-55 0 -89.5 -38t-34.5 -116v-531h-356v991h339v-102q84 129 268 129q95 0 170.5 -40t123.5 -113q90 153 295 153z
" />
    <glyph glyph-name="n" unicode="n" horiz-adv-x="1130" 
d="M694 1018q156 0 255 -102t99 -271v-645h-356v533q0 74 -32.5 113t-92.5 39q-56 0 -90 -38.5t-34 -115.5v-531h-356v991h339v-102q84 129 268 129z" />
    <glyph glyph-name="o" unicode="o" horiz-adv-x="1164" 
d="M582 1018q234 0 387 -148t153 -374t-153 -374t-387 -148t-387 148t-153 374t153 374t387 148zM582 687q-77 0 -126.5 -53.5t-49.5 -137.5t49.5 -137.5t126.5 -53.5t126.5 53.5t49.5 137.5t-49.5 137.5t-126.5 53.5z" />
    <glyph glyph-name="p" unicode="p" horiz-adv-x="1191" 
d="M697 1018q130 0 234.5 -70.5t161 -189.5t56.5 -261q0 -143 -57 -262.5t-160.5 -190t-233.5 -70.5q-158 0 -255 97v-471h-356v1391h341v-89q102 116 269 116zM606 687q-77 0 -126.5 -53.5t-49.5 -137.5t49.5 -137.5t126.5 -53.5t126.5 53.5t49.5 137.5t-49.5 137.5
t-126.5 53.5z" />
    <glyph glyph-name="q" unicode="q" horiz-adv-x="1191" 
d="M494 1018q167 0 269 -116v89h341v-1391h-356v471q-99 -97 -255 -97q-130 0 -233.5 70.5t-160.5 190t-57 262.5q0 142 56.5 261t161 189.5t234.5 70.5zM585 687q-77 0 -126.5 -53.5t-49.5 -137.5t49.5 -137.5t126.5 -53.5t126.5 53.5t49.5 137.5t-49.5 137.5t-126.5 53.5z
" />
    <glyph glyph-name="r" unicode="r" horiz-adv-x="805" 
d="M690 1018q39 0 89 -10l-20 -356q-86 23 -156 23q-79 0 -119 -33t-40 -111v-531h-357v991h340v-100q81 127 263 127z" />
    <glyph glyph-name="s" unicode="s" horiz-adv-x="1020" 
d="M862 663q-190 73 -334 73q-49 0 -67.5 -9t-18.5 -28q0 -11 6.5 -18t24 -12t31.5 -8t45.5 -7.5t50.5 -7.5l60 -10q316 -52 316 -304q0 -171 -121.5 -264.5t-339.5 -93.5q-148 0 -272.5 25t-198.5 70l114 278q165 -90 359 -90q58 0 80.5 10t22.5 32t-30.5 32t-120.5 23
l-39 6q-184 28 -269.5 105t-85.5 215q0 163 113.5 250.5t322.5 87.5q121 0 208 -15.5t228 -61.5z" />
    <glyph glyph-name="t" unicode="t" horiz-adv-x="980" 
d="M884 677h-322v-232q0 -140 133 -140q61 0 161 60l119 -276q-81 -57 -166 -86t-206 -29q-203 0 -300 112t-97 304v287h-180v314h180v284h356v-284h322v-314z" />
    <glyph glyph-name="u" unicode="u" horiz-adv-x="1136" 
d="M1054 426q0 -222 -134 -337t-352 -115t-352 115.5t-134 337.5v564h356v-534q0 -74 35 -113t95 -39t95 39t35 113v534h356v-565z" />
    <glyph glyph-name="v" unicode="v" horiz-adv-x="1170" 
d="M790 0h-403l-378 991h389l192 -593l194 593h377z" />
    <glyph glyph-name="w" unicode="w" horiz-adv-x="1844" 
d="M1279 411l175 580h376l-347 -991h-390l-173 530l-168 -530h-390l-348 991h380l174 -579l182 579h345z" />
    <glyph glyph-name="x" unicode="x" horiz-adv-x="1188" 
d="M831 496l340 -496h-409l-172 259l-165 -259h-408l346 499l-333 492h412l160 -261l158 261h407z" />
    <glyph glyph-name="y" unicode="y" horiz-adv-x="1185" 
d="M469 -400h-389l334 624l-408 767h411l187 -390l186 390h390z" />
    <glyph glyph-name="z" unicode="z" horiz-adv-x="1039" 
d="M967 726l-395 -412h406v-314h-917v255l406 422h-389v314h889v-265z" />
    <glyph glyph-name="braceleft" unicode="{" horiz-adv-x="881" 
d="M744 1096q-61 0 -93.5 -36.5t-29.5 -107.5l3 -68q3 -60 -5 -106t-31 -87.5t-68.5 -72t-113.5 -49.5q132 -40 178.5 -116.5t39.5 -199.5l-3 -68q-3 -71 29.5 -107.5t93.5 -36.5h97v-304h-157q-213 0 -320 120.5t-99 331.5l3 78q3 75 -51 114.5t-157 39.5v295
q103 0 157 39.5t51 114.5l-3 78q-8 211 99 331.5t320 120.5h157v-304h-97z" />
    <glyph glyph-name="bar" unicode="|" horiz-adv-x="636" 
d="M496 -265h-356v1665h356v-1665z" />
    <glyph glyph-name="braceright" unicode="}" horiz-adv-x="881" 
d="M137 41q61 0 93.5 36.5t29.5 107.5l-3 68q-3 47 1 85t18 74.5t38.5 64.5t65 51.5t95.5 39.5q-132 39 -178.5 115.5t-39.5 200.5l3 68q3 71 -29.5 107.5t-93.5 36.5h-97v304h157q212 0 319.5 -120.5t99.5 -331.5l-3 -78q-3 -75 51 -114.5t157 -39.5v-295
q-103 0 -157 -39.5t-51 -114.5l3 -78q8 -211 -99.5 -331.5t-319.5 -120.5h-157v304h97z" />
    <glyph glyph-name="uni00A0" unicode="&#xa0;" horiz-adv-x="410" 
 />
    <glyph glyph-name="exclamdown" unicode="&#xa1;" horiz-adv-x="601" 
d="M131 474h336l40 -882h-416zM299 579q-88 0 -153 65t-65 153q0 89 65 155t153 66q89 0 155 -66t66 -155q0 -88 -66 -153t-155 -65z" />
    <glyph glyph-name="sterling" unicode="&#xa3;" horiz-adv-x="1400" 
d="M1216 0h-1084v341h148v223h-148v272h148v32q0 137 46 245t126 175.5t183.5 102.5t222.5 35q258 0 410 -150l-244 -262q-64 58 -166 58q-92 0 -150 -51t-58 -155v-30h452v-272h-452v-223h566v-341z" />
    <glyph glyph-name="yen" unicode="&#xa5;" horiz-adv-x="1400" 
d="M1237 248h-345v-248h-370v248h-346v208h346v94h-346v208h265l-428 642h422l272 -436l270 436h410l-419 -642h269v-208h-345v-94h345v-208z" />
    <glyph glyph-name="section" unicode="&#xa7;" horiz-adv-x="1295" 
d="M1049 1009q-186 100 -365 100q-154 0 -154 -70q0 -14 7 -25.5t23 -20.5t31 -15t43.5 -12.5t47 -10t54 -10t53.5 -9.5l38 -7q196 -35 296 -122.5t100 -210.5q0 -173 -126 -278q97 -88 97 -226q0 -95 -31 -171.5t-83.5 -126.5t-123.5 -84t-147.5 -48.5t-159.5 -14.5
q-360 0 -577 148l169 290q53 -30 83 -44.5t85.5 -36.5t116 -32t130.5 -10q151 0 151 75q0 14 -4.5 24t-15.5 17.5t-22.5 13t-34.5 10.5t-42 8.5t-52.5 9.5t-60.5 12l-46 9q-206 42 -309 127t-103 232q0 155 131 255q-103 87 -103 247q0 189 143 306.5t379 117.5
q136 0 254.5 -24t276.5 -101zM566 632q-65 -24 -65 -77q0 -16 7.5 -28t22.5 -21t32 -15t43 -11.5t47.5 -9.5t53.5 -9t54 -10l28 -6q47 26 47 77q0 46 -57 67q-34 13 -176 38z" />
    <glyph glyph-name="copyright" unicode="&#xa9;" horiz-adv-x="1778" 
d="M889 1512q169 0 322.5 -63.5t264.5 -171t176.5 -255.5t65.5 -311t-65.5 -311.5t-176.5 -256t-264.5 -171.5t-322.5 -64t-322.5 64t-264.5 171.5t-176.5 256t-65.5 311.5t65.5 311t176.5 255.5t264.5 171t322.5 63.5zM889 1225q-143 0 -264 -69t-191 -187t-70 -258
t70 -259t191 -188t264 -69q107 0 204 41t167.5 110t112 164.5t41.5 200.5q0 140 -70 258t-191 187t-264 69zM1030 751q-40 98 -139 98q-53 0 -85.5 -37.5t-32.5 -101.5q0 -74 36 -105.5t82 -31.5q97 0 147 98l231 -141q-56 -98 -150.5 -152.5t-222.5 -54.5
q-180 0 -291.5 107t-111.5 280q0 174 111.5 281t291.5 107q132 0 236 -63.5t149 -175.5z" />
    <glyph glyph-name="guillemotleft" unicode="&#xab;" horiz-adv-x="1133" 
d="M1084 120h-336l-200 411l200 411h336l-200 -411zM591 120h-336l-200 411l200 411h336l-200 -411z" />
    <glyph glyph-name="uni00AD" unicode="&#xad;" horiz-adv-x="750" 
d="M680 381h-610v300h610v-300z" />
    <glyph glyph-name="registered" unicode="&#xae;" horiz-adv-x="991" 
d="M496 1446q200 0 337.5 -135t137.5 -328q0 -125 -63 -231t-172.5 -168.5t-239.5 -62.5q-200 0 -338 135.5t-138 326.5q0 126 62.5 232.5t172 168.5t241.5 62zM496 669q127 0 219.5 93t92.5 221q0 129 -92.5 222t-219.5 93q-130 0 -222.5 -93t-92.5 -222t92.5 -221.5
t222.5 -92.5zM516 1195q86 0 132 -39t46 -106q0 -105 -119 -129l125 -149h-147l-109 144h-7v-144h-124v423h203zM437 1085v-66h77q53 0 53 31q0 35 -53 35h-77z" />
    <glyph glyph-name="degree" unicode="&#xb0;" horiz-adv-x="889" 
d="M445 587q-176 0 -300.5 122t-124.5 293q0 176 124.5 300t300.5 124q175 0 299.5 -124t124.5 -300q0 -171 -124.5 -293t-299.5 -122zM445 857q59 0 101.5 42.5t42.5 102.5q0 59 -42.5 101.5t-101.5 42.5q-60 0 -102.5 -42.5t-42.5 -101.5q0 -60 42.5 -102.5t102.5 -42.5z
" />
    <glyph glyph-name="periodcentered" unicode="&#xb7;" horiz-adv-x="699" 
d="M351 760q92 0 160.5 -68.5t68.5 -160.5q0 -94 -68.5 -163t-160.5 -69q-94 0 -163 69t-69 163q0 92 69 160.5t163 68.5z" />
    <glyph glyph-name="guillemotright" unicode="&#xbb;" horiz-adv-x="1133" 
d="M49 942h336l200 -411l-200 -411h-336l200 411zM542 942h336l200 -411l-200 -411h-336l200 411z" />
    <glyph glyph-name="questiondown" unicode="&#xbf;" horiz-adv-x="892" 
d="M757 484v-373h-108q-117 0 -172.5 -22t-55.5 -70q0 -50 55 -72t173 -23q82 0 138 7l19 -353q-98 -12 -228 -12q-257 0 -402.5 110.5t-145.5 301.5q0 160 98.5 265t285.5 147l7 94h336zM589 578q-88 0 -153 65t-65 153q0 89 65 155.5t153 66.5q89 0 155 -66t66 -155
q0 -88 -66 -153.5t-155 -65.5z" />
    <glyph glyph-name="Agrave" unicode="&#xc0;" horiz-adv-x="1518" 
d="M1513 0h-403l-93 267h-523l-92 -267h-397l530 1400h448zM612 606h287l-143 414zM359 1849h398l221 -346h-329z" />
    <glyph glyph-name="Aacute" unicode="&#xc1;" horiz-adv-x="1518" 
d="M1513 0h-403l-93 267h-523l-92 -267h-397l530 1400h448zM612 606h287l-143 414zM529 1503l221 346h398l-290 -346h-329z" />
    <glyph glyph-name="Acircumflex" unicode="&#xc2;" horiz-adv-x="1518" 
d="M1513 0h-403l-93 267h-523l-92 -267h-397l530 1400h448zM612 606h287l-143 414zM865 1493l-106 136l-107 -136h-309l231 346h369l231 -346h-309z" />
    <glyph glyph-name="Atilde" unicode="&#xc3;" horiz-adv-x="1518" 
d="M1513 0h-403l-93 267h-523l-92 -267h-397l530 1400h448zM612 606h287l-143 414zM328 1680q109 169 306 169q63 0 113.5 -18.5t83.5 -37t53 -18.5q46 0 108 70l197 -179q-109 -169 -306 -169q-63 0 -113.5 18.5t-83.5 37t-53 18.5q-46 0 -108 -70z" />
    <glyph glyph-name="Adieresis" unicode="&#xc4;" horiz-adv-x="1518" 
d="M1513 0h-403l-93 267h-523l-92 -267h-397l530 1400h448zM612 606h287l-143 414zM514 1870q87 0 145.5 -58.5t58.5 -145.5t-58.5 -145.5t-145.5 -58.5t-145.5 58.5t-58.5 145.5t58.5 145.5t145.5 58.5zM1004 1870q87 0 145.5 -58.5t58.5 -145.5t-58.5 -145.5t-145.5 -58.5
t-145.5 58.5t-58.5 145.5t58.5 145.5t145.5 58.5z" />
    <glyph glyph-name="Aring" unicode="&#xc5;" horiz-adv-x="1518" 
d="M1513 0h-403l-93 267h-523l-92 -267h-397l530 1400h448zM612 606h287l-143 414zM758 1462q-119 0 -203 82.5t-84 200.5q0 117 84 200t203 83q120 0 204 -83t84 -200q0 -118 -84 -200.5t-204 -82.5zM758 1643q41 0 70.5 29.5t29.5 72.5q0 42 -29.5 72t-70.5 30
q-40 0 -69.5 -30t-29.5 -72q0 -43 29.5 -72.5t69.5 -29.5z" />
    <glyph glyph-name="AE" unicode="&#xc6;" horiz-adv-x="2276" 
d="M2196 0h-1094v242h-497l-155 -242h-446l930 1400h1262v-338h-714v-185h664v-338h-664v-201h714v-338zM1102 581v437l-280 -437h280z" />
    <glyph glyph-name="Ccedilla" unicode="&#xc7;" horiz-adv-x="1469" 
d="M844 -321h-340l111 328h332zM789 1426q207 0 377 -94t262 -261l-337 -186q-103 177 -308 177q-147 0 -242.5 -101.5t-95.5 -260.5q0 -170 100 -266t239 -96q200 0 316 176l312 -218q-103 -152 -261.5 -237t-361.5 -85q-214 0 -382.5 92t-262.5 257.5t-94 376.5t94 376.5
t262.5 257.5t382.5 92z" />
    <glyph glyph-name="Egrave" unicode="&#xc8;" horiz-adv-x="1274" 
d="M1194 0h-1094v1400h1094v-338h-714v-185h664v-338h-664v-201h714v-338zM247 1849h398l221 -346h-329z" />
    <glyph glyph-name="Eacute" unicode="&#xc9;" horiz-adv-x="1274" 
d="M1194 0h-1094v1400h1094v-338h-714v-185h664v-338h-664v-201h714v-338zM417 1503l221 346h398l-290 -346h-329z" />
    <glyph glyph-name="Ecircumflex" unicode="&#xca;" horiz-adv-x="1274" 
d="M1194 0h-1094v1400h1094v-338h-714v-185h664v-338h-664v-201h714v-338zM753 1493l-106 136l-107 -136h-309l231 346h369l231 -346h-309z" />
    <glyph glyph-name="Edieresis" unicode="&#xcb;" horiz-adv-x="1274" 
d="M1194 0h-1094v1400h1094v-338h-714v-185h664v-338h-664v-201h714v-338zM402 1870q87 0 145.5 -58.5t58.5 -145.5t-58.5 -145.5t-145.5 -58.5t-145.5 58.5t-58.5 145.5t58.5 145.5t145.5 58.5zM892 1870q87 0 145.5 -58.5t58.5 -145.5t-58.5 -145.5t-145.5 -58.5
t-145.5 58.5t-58.5 145.5t58.5 145.5t145.5 58.5z" />
    <glyph glyph-name="Igrave" unicode="&#xcc;" horiz-adv-x="580" 
d="M480 0h-380v1400h380v-1400zM-110 1849h398l221 -346h-329z" />
    <glyph glyph-name="Iacute" unicode="&#xcd;" horiz-adv-x="580" 
d="M480 0h-380v1400h380v-1400zM60 1503l221 346h398l-290 -346h-329z" />
    <glyph glyph-name="Icircumflex" unicode="&#xce;" horiz-adv-x="580" 
d="M480 0h-380v1400h380v-1400zM396 1493l-106 136l-107 -136h-309l231 346h369l231 -346h-309z" />
    <glyph glyph-name="Idieresis" unicode="&#xcf;" horiz-adv-x="580" 
d="M480 0h-380v1400h380v-1400zM45 1870q87 0 145.5 -58.5t58.5 -145.5t-58.5 -145.5t-145.5 -58.5t-145.5 58.5t-58.5 145.5t58.5 145.5t145.5 58.5zM535 1870q87 0 145.5 -58.5t58.5 -145.5t-58.5 -145.5t-145.5 -58.5t-145.5 58.5t-58.5 145.5t58.5 145.5t145.5 58.5z
" />
    <glyph glyph-name="Eth" unicode="&#xd0;" horiz-adv-x="1586" 
d="M810 1400q328 0 527 -192t199 -508t-199 -508t-527 -192h-618v548h-132v320h132v532h618zM870 548h-298v-199h228q166 0 253.5 96.5t87.5 254.5q0 160 -87.5 255.5t-253.5 95.5h-228v-183h298v-320z" />
    <glyph glyph-name="Ntilde" unicode="&#xd1;" horiz-adv-x="1527" 
d="M1427 0h-370l-577 787v-787h-380v1400h370l577 -787v787h380v-1400zM349 1680q109 169 306 169q63 0 113.5 -18.5t83.5 -37t53 -18.5q46 0 108 70l197 -179q-109 -169 -306 -169q-63 0 -113.5 18.5t-83.5 37t-53 18.5q-46 0 -108 -70z" />
    <glyph glyph-name="Ograve" unicode="&#xd2;" horiz-adv-x="1580" 
d="M790 1426q160 0 298 -55t235 -150.5t152 -230.5t55 -290t-55 -290t-152 -230.5t-235 -150.5t-298 -55t-298 55t-235 150.5t-152 230.5t-55 290t55 290t152 230.5t235 150.5t298 55zM790 1062q-153 0 -249 -101t-96 -261t96 -261t249 -101t249 101t96 261t-96 261
t-249 101zM390 1849h398l221 -346h-329z" />
    <glyph glyph-name="Oacute" unicode="&#xd3;" horiz-adv-x="1580" 
d="M790 1426q160 0 298 -55t235 -150.5t152 -230.5t55 -290t-55 -290t-152 -230.5t-235 -150.5t-298 -55t-298 55t-235 150.5t-152 230.5t-55 290t55 290t152 230.5t235 150.5t298 55zM790 1062q-153 0 -249 -101t-96 -261t96 -261t249 -101t249 101t96 261t-96 261
t-249 101zM560 1503l221 346h398l-290 -346h-329z" />
    <glyph glyph-name="Ocircumflex" unicode="&#xd4;" horiz-adv-x="1580" 
d="M790 1426q160 0 298 -55t235 -150.5t152 -230.5t55 -290t-55 -290t-152 -230.5t-235 -150.5t-298 -55t-298 55t-235 150.5t-152 230.5t-55 290t55 290t152 230.5t235 150.5t298 55zM790 1062q-153 0 -249 -101t-96 -261t96 -261t249 -101t249 101t96 261t-96 261
t-249 101zM896 1493l-106 136l-107 -136h-309l231 346h369l231 -346h-309z" />
    <glyph glyph-name="Otilde" unicode="&#xd5;" horiz-adv-x="1580" 
d="M790 1426q160 0 298 -55t235 -150.5t152 -230.5t55 -290t-55 -290t-152 -230.5t-235 -150.5t-298 -55t-298 55t-235 150.5t-152 230.5t-55 290t55 290t152 230.5t235 150.5t298 55zM790 1062q-153 0 -249 -101t-96 -261t96 -261t249 -101t249 101t96 261t-96 261
t-249 101zM359 1680q109 169 306 169q63 0 113.5 -18.5t83.5 -37t53 -18.5q46 0 108 70l197 -179q-109 -169 -306 -169q-63 0 -113.5 18.5t-83.5 37t-53 18.5q-46 0 -108 -70z" />
    <glyph glyph-name="Odieresis" unicode="&#xd6;" horiz-adv-x="1580" 
d="M790 1426q160 0 298 -55t235 -150.5t152 -230.5t55 -290t-55 -290t-152 -230.5t-235 -150.5t-298 -55t-298 55t-235 150.5t-152 230.5t-55 290t55 290t152 230.5t235 150.5t298 55zM790 1062q-153 0 -249 -101t-96 -261t96 -261t249 -101t249 101t96 261t-96 261
t-249 101zM545 1870q87 0 145.5 -58.5t58.5 -145.5t-58.5 -145.5t-145.5 -58.5t-145.5 58.5t-58.5 145.5t58.5 145.5t145.5 58.5zM1035 1870q87 0 145.5 -58.5t58.5 -145.5t-58.5 -145.5t-145.5 -58.5t-145.5 58.5t-58.5 145.5t58.5 145.5t145.5 58.5z" />
    <glyph glyph-name="multiply" unicode="&#xd7;" 
d="M130 265l264 264l-266 266l208 208l266 -266l264 264l204 -204l-264 -264l266 -266l-208 -208l-266 266l-264 -264z" />
    <glyph glyph-name="Oslash" unicode="&#xd8;" horiz-adv-x="1580" 
d="M790 1426q232 0 416 -115l115 115l205 -205l-113 -113q117 -177 117 -408q0 -155 -55 -290t-152 -230.5t-235 -150.5t-298 -55q-229 0 -404 107l-107 -107l-205 205l101 101q-125 183 -125 420q0 155 55 290t152 230.5t235 150.5t298 55zM790 1062q-153 0 -249 -101
t-96 -261q0 -68 19 -131l466 466q-63 27 -140 27zM1135 700q0 55 -15 115l-456 -456q57 -21 126 -21q153 0 249 101t96 261z" />
    <glyph glyph-name="Ugrave" unicode="&#xd9;" horiz-adv-x="1420" 
d="M1330 571q0 -287 -160 -442t-460 -155t-460 155t-160 442v829h381v-818q0 -119 63 -181.5t176 -62.5t176 62.5t63 181.5v818h381v-829zM310 1849h398l221 -346h-329z" />
    <glyph glyph-name="Uacute" unicode="&#xda;" horiz-adv-x="1420" 
d="M1330 571q0 -287 -160 -442t-460 -155t-460 155t-160 442v829h381v-818q0 -119 63 -181.5t176 -62.5t176 62.5t63 181.5v818h381v-829zM480 1503l221 346h398l-290 -346h-329z" />
    <glyph glyph-name="Ucircumflex" unicode="&#xdb;" horiz-adv-x="1420" 
d="M1330 571q0 -287 -160 -442t-460 -155t-460 155t-160 442v829h381v-818q0 -119 63 -181.5t176 -62.5t176 62.5t63 181.5v818h381v-829zM816 1493l-106 136l-107 -136h-309l231 346h369l231 -346h-309z" />
    <glyph glyph-name="Udieresis" unicode="&#xdc;" horiz-adv-x="1420" 
d="M1330 571q0 -287 -160 -442t-460 -155t-460 155t-160 442v829h381v-818q0 -119 63 -181.5t176 -62.5t176 62.5t63 181.5v818h381v-829zM465 1870q87 0 145.5 -58.5t58.5 -145.5t-58.5 -145.5t-145.5 -58.5t-145.5 58.5t-58.5 145.5t58.5 145.5t145.5 58.5zM955 1870
q87 0 145.5 -58.5t58.5 -145.5t-58.5 -145.5t-145.5 -58.5t-145.5 58.5t-58.5 145.5t58.5 145.5t145.5 58.5z" />
    <glyph glyph-name="Yacute" unicode="&#xdd;" horiz-adv-x="1428" 
d="M910 530v-530h-380v525l-528 875h436l283 -529l282 529h423zM491 1503l221 346h398l-290 -346h-329z" />
    <glyph glyph-name="Thorn" unicode="&#xde;" horiz-adv-x="1314" 
d="M480 1197h244q261 0 402 -131.5t141 -352.5q0 -217 -140 -346t-398 -129h-249v-238h-380v1400h380v-203zM480 856v-285h240q72 0 117.5 37.5t45.5 104.5t-45.5 105t-117.5 38h-240z" />
    <glyph glyph-name="germandbls" unicode="&#xdf;" horiz-adv-x="1222" 
d="M83 970q0 76 15 144.5t53 134t96.5 112.5t152 76t212.5 29q105 0 193.5 -24t150 -65t104 -96.5t62.5 -117.5t20 -129q0 -232 -179 -324q94 -37 155.5 -123.5t61.5 -192.5q0 -191 -127 -305.5t-355 -114.5q-111 0 -181 22l27 284q50 -14 100 -14q77 0 124.5 39.5
t47.5 103.5q0 152 -188 152h-52v292h27q175 0 175 148q0 60 -47 102t-127 42q-81 0 -123 -49t-42 -135v-961h-356v970z" />
    <glyph glyph-name="agrave" unicode="&#xe0;" horiz-adv-x="1192" 
d="M1105 0h-342v87q-101 -113 -270 -113q-130 0 -233.5 70.5t-160.5 190t-57 262.5q0 142 56.5 261t161 189.5t234.5 70.5q167 0 269 -116v89h342v-991zM585 687q-77 0 -126.5 -53.5t-49.5 -137.5t49.5 -137.5t126.5 -53.5t126.5 53.5t49.5 137.5t-49.5 137.5t-126.5 53.5z
M222 1449h398l221 -346h-329z" />
    <glyph glyph-name="aacute" unicode="&#xe1;" horiz-adv-x="1192" 
d="M1105 0h-342v87q-101 -113 -270 -113q-130 0 -233.5 70.5t-160.5 190t-57 262.5q0 142 56.5 261t161 189.5t234.5 70.5q167 0 269 -116v89h342v-991zM585 687q-77 0 -126.5 -53.5t-49.5 -137.5t49.5 -137.5t126.5 -53.5t126.5 53.5t49.5 137.5t-49.5 137.5t-126.5 53.5z
M393 1103l221 346h398l-290 -346h-329z" />
    <glyph glyph-name="acircumflex" unicode="&#xe2;" horiz-adv-x="1192" 
d="M1105 0h-342v87q-101 -113 -270 -113q-130 0 -233.5 70.5t-160.5 190t-57 262.5q0 142 56.5 261t161 189.5t234.5 70.5q167 0 269 -116v89h342v-991zM585 687q-77 0 -126.5 -53.5t-49.5 -137.5t49.5 -137.5t126.5 -53.5t126.5 53.5t49.5 137.5t-49.5 137.5t-126.5 53.5z
M716 1093l-106 136l-107 -136h-309l231 346h369l231 -346h-309z" />
    <glyph glyph-name="atilde" unicode="&#xe3;" horiz-adv-x="1192" 
d="M1105 0h-342v87q-101 -113 -270 -113q-130 0 -233.5 70.5t-160.5 190t-57 262.5q0 142 56.5 261t161 189.5t234.5 70.5q167 0 269 -116v89h342v-991zM585 687q-77 0 -126.5 -53.5t-49.5 -137.5t49.5 -137.5t126.5 -53.5t126.5 53.5t49.5 137.5t-49.5 137.5t-126.5 53.5z
M171 1280q109 169 306 169q63 0 113.5 -18.5t83.5 -37t53 -18.5q46 0 108 70l197 -179q-109 -169 -306 -169q-63 0 -113.5 18.5t-83.5 37t-53 18.5q-46 0 -108 -70z" />
    <glyph glyph-name="adieresis" unicode="&#xe4;" horiz-adv-x="1192" 
d="M1105 0h-342v87q-101 -113 -270 -113q-130 0 -233.5 70.5t-160.5 190t-57 262.5q0 142 56.5 261t161 189.5t234.5 70.5q167 0 269 -116v89h342v-991zM585 687q-77 0 -126.5 -53.5t-49.5 -137.5t49.5 -137.5t126.5 -53.5t126.5 53.5t49.5 137.5t-49.5 137.5t-126.5 53.5z
M361 1470q87 0 145.5 -58.5t58.5 -145.5t-58.5 -145.5t-145.5 -58.5t-145.5 58.5t-58.5 145.5t58.5 145.5t145.5 58.5zM851 1470q87 0 145.5 -58.5t58.5 -145.5t-58.5 -145.5t-145.5 -58.5t-145.5 58.5t-58.5 145.5t58.5 145.5t145.5 58.5z" />
    <glyph glyph-name="aring" unicode="&#xe5;" horiz-adv-x="1192" 
d="M1105 0h-342v87q-101 -113 -270 -113q-130 0 -233.5 70.5t-160.5 190t-57 262.5q0 142 56.5 261t161 189.5t234.5 70.5q167 0 269 -116v89h342v-991zM585 687q-77 0 -126.5 -53.5t-49.5 -137.5t49.5 -137.5t126.5 -53.5t126.5 53.5t49.5 137.5t-49.5 137.5t-126.5 53.5z
M609 1062q-119 0 -203 82.5t-84 200.5q0 117 84 200t203 83q120 0 204 -83t84 -200q0 -118 -84 -200.5t-204 -82.5zM609 1243q41 0 70.5 29.5t29.5 72.5q0 42 -29.5 72t-70.5 30q-40 0 -69.5 -30t-29.5 -72q0 -43 29.5 -72.5t69.5 -29.5z" />
    <glyph glyph-name="ae" unicode="&#xe6;" horiz-adv-x="1718" 
d="M1191 1018q219 0 352 -144t133 -378q0 -59 -7 -106h-647q36 -120 178 -120q104 0 187 80l244 -204q-77 -80 -195 -126t-265 -46q-240 0 -376 130q-141 -130 -356 -130q-182 0 -289.5 82.5t-107.5 228.5q0 149 115.5 230t334.5 81h159q-20 115 -162 115q-63 0 -141 -22.5
t-131 -52.5l-112 277q63 39 185.5 72t250.5 33q214 0 316 -115q115 115 334 115zM507 237q99 0 170 71q-9 33 -16 80h-116q-69 0 -106.5 -20t-37.5 -56q0 -35 27.5 -55t78.5 -20zM1171 719q-57 0 -95.5 -27t-55.5 -97h304q-35 124 -153 124z" />
    <glyph glyph-name="ccedilla" unicode="&#xe7;" horiz-adv-x="1043" 
d="M582 1018q286 0 445 -240l-292 -184q-62 93 -161 93q-69 0 -118.5 -51t-49.5 -140t48 -140t117 -51q101 0 164 94l293 -187q-75 -113 -187.5 -175.5t-258.5 -62.5q-237 0 -388.5 146t-151.5 376t151.5 376t388.5 146zM623 -321h-316l111 328h308z" />
    <glyph glyph-name="egrave" unicode="&#xe8;" horiz-adv-x="1106" 
d="M557 1018q224 0 365.5 -145t141.5 -377q0 -59 -7 -106h-647q36 -120 178 -120q104 0 187 80l244 -204q-74 -80 -189 -126t-259 -46q-238 0 -383.5 141.5t-145.5 371.5q0 236 143 383.5t372 147.5zM559 719q-113 0 -148 -114h298q-37 114 -150 114zM169 1449h398l221 -346
h-329z" />
    <glyph glyph-name="eacute" unicode="&#xe9;" horiz-adv-x="1106" 
d="M557 1018q224 0 365.5 -145t141.5 -377q0 -59 -7 -106h-647q36 -120 178 -120q104 0 187 80l244 -204q-74 -80 -189 -126t-259 -46q-238 0 -383.5 141.5t-145.5 371.5q0 236 143 383.5t372 147.5zM559 719q-113 0 -148 -114h298q-37 114 -150 114zM340 1103l221 346h398
l-290 -346h-329z" />
    <glyph glyph-name="ecircumflex" unicode="&#xea;" horiz-adv-x="1106" 
d="M557 1018q224 0 365.5 -145t141.5 -377q0 -59 -7 -106h-647q36 -120 178 -120q104 0 187 80l244 -204q-74 -80 -189 -126t-259 -46q-238 0 -383.5 141.5t-145.5 371.5q0 236 143 383.5t372 147.5zM559 719q-113 0 -148 -114h298q-37 114 -150 114zM663 1093l-106 136
l-107 -136h-309l231 346h369l231 -346h-309z" />
    <glyph glyph-name="edieresis" unicode="&#xeb;" horiz-adv-x="1106" 
d="M557 1018q224 0 365.5 -145t141.5 -377q0 -59 -7 -106h-647q36 -120 178 -120q104 0 187 80l244 -204q-74 -80 -189 -126t-259 -46q-238 0 -383.5 141.5t-145.5 371.5q0 236 143 383.5t372 147.5zM559 719q-113 0 -148 -114h298q-37 114 -150 114zM308 1470
q87 0 145.5 -58.5t58.5 -145.5t-58.5 -145.5t-145.5 -58.5t-145.5 58.5t-58.5 145.5t58.5 145.5t145.5 58.5zM798 1470q87 0 145.5 -58.5t58.5 -145.5t-58.5 -145.5t-145.5 -58.5t-145.5 58.5t-58.5 145.5t58.5 145.5t145.5 58.5z" />
    <glyph glyph-name="igrave" unicode="&#xec;" horiz-adv-x="530" 
d="M443 0h-356v991h356v-991zM-124 1449h398l221 -346h-329z" />
    <glyph glyph-name="iacute" unicode="&#xed;" horiz-adv-x="530" 
d="M443 0h-356v991h356v-991zM47 1103l221 346h398l-290 -346h-329z" />
    <glyph glyph-name="icircumflex" unicode="&#xee;" horiz-adv-x="530" 
d="M443 0h-356v991h356v-991zM370 1093l-106 136l-107 -136h-309l231 346h369l231 -346h-309z" />
    <glyph glyph-name="idieresis" unicode="&#xef;" horiz-adv-x="530" 
d="M443 0h-356v991h356v-991zM15 1470q87 0 145.5 -58.5t58.5 -145.5t-58.5 -145.5t-145.5 -58.5t-145.5 58.5t-58.5 145.5t58.5 145.5t145.5 58.5zM505 1470q87 0 145.5 -58.5t58.5 -145.5t-58.5 -145.5t-145.5 -58.5t-145.5 58.5t-58.5 145.5t58.5 145.5t145.5 58.5z" />
    <glyph glyph-name="eth" unicode="&#xf0;" horiz-adv-x="1155" 
d="M943 1285l-127 -79q137 -140 217 -319.5t80 -384.5q0 -152 -66 -271.5t-190 -188t-286 -68.5q-226 0 -377.5 136t-151.5 340q0 201 129.5 333.5t322.5 132.5q114 0 197 -49q-54 100 -148 178l-201 -125l-105 163l132 82l-66.5 38t-68.5 40l221 217q106 -48 208 -122
l175 110zM582 623q-76 0 -126 -49t-50 -124q0 -76 49.5 -125t126.5 -49t126.5 49t49.5 125q0 75 -50 124t-126 49z" />
    <glyph glyph-name="ntilde" unicode="&#xf1;" horiz-adv-x="1130" 
d="M694 1018q156 0 255 -102t99 -271v-645h-356v533q0 74 -32.5 113t-92.5 39q-56 0 -90 -38.5t-34 -115.5v-531h-356v991h339v-102q84 129 268 129zM135 1280q109 169 306 169q63 0 113.5 -18.5t83.5 -37t53 -18.5q46 0 108 70l197 -179q-109 -169 -306 -169
q-63 0 -113.5 18.5t-83.5 37t-53 18.5q-46 0 -108 -70z" />
    <glyph glyph-name="ograve" unicode="&#xf2;" horiz-adv-x="1164" 
d="M582 1018q234 0 387 -148t153 -374t-153 -374t-387 -148t-387 148t-153 374t153 374t387 148zM582 687q-77 0 -126.5 -53.5t-49.5 -137.5t49.5 -137.5t126.5 -53.5t126.5 53.5t49.5 137.5t-49.5 137.5t-126.5 53.5zM194 1449h398l221 -346h-329z" />
    <glyph glyph-name="oacute" unicode="&#xf3;" horiz-adv-x="1164" 
d="M582 1018q234 0 387 -148t153 -374t-153 -374t-387 -148t-387 148t-153 374t153 374t387 148zM582 687q-77 0 -126.5 -53.5t-49.5 -137.5t49.5 -137.5t126.5 -53.5t126.5 53.5t49.5 137.5t-49.5 137.5t-126.5 53.5zM365 1103l221 346h398l-290 -346h-329z" />
    <glyph glyph-name="ocircumflex" unicode="&#xf4;" horiz-adv-x="1164" 
d="M582 1018q234 0 387 -148t153 -374t-153 -374t-387 -148t-387 148t-153 374t153 374t387 148zM582 687q-77 0 -126.5 -53.5t-49.5 -137.5t49.5 -137.5t126.5 -53.5t126.5 53.5t49.5 137.5t-49.5 137.5t-126.5 53.5zM688 1093l-106 136l-107 -136h-309l231 346h369
l231 -346h-309z" />
    <glyph glyph-name="otilde" unicode="&#xf5;" horiz-adv-x="1164" 
d="M582 1018q234 0 387 -148t153 -374t-153 -374t-387 -148t-387 148t-153 374t153 374t387 148zM582 687q-77 0 -126.5 -53.5t-49.5 -137.5t49.5 -137.5t126.5 -53.5t126.5 53.5t49.5 137.5t-49.5 137.5t-126.5 53.5zM143 1280q109 169 306 169q63 0 113.5 -18.5t83.5 -37
t53 -18.5q46 0 108 70l197 -179q-109 -169 -306 -169q-63 0 -113.5 18.5t-83.5 37t-53 18.5q-46 0 -108 -70z" />
    <glyph glyph-name="odieresis" unicode="&#xf6;" horiz-adv-x="1164" 
d="M582 1018q234 0 387 -148t153 -374t-153 -374t-387 -148t-387 148t-153 374t153 374t387 148zM582 687q-77 0 -126.5 -53.5t-49.5 -137.5t49.5 -137.5t126.5 -53.5t126.5 53.5t49.5 137.5t-49.5 137.5t-126.5 53.5zM333 1470q87 0 145.5 -58.5t58.5 -145.5t-58.5 -145.5
t-145.5 -58.5t-145.5 58.5t-58.5 145.5t58.5 145.5t145.5 58.5zM823 1470q87 0 145.5 -58.5t58.5 -145.5t-58.5 -145.5t-145.5 -58.5t-145.5 58.5t-58.5 145.5t58.5 145.5t145.5 58.5z" />
    <glyph glyph-name="oslash" unicode="&#xf8;" horiz-adv-x="1164" 
d="M582 1018q145 0 268 -64l99 99l194 -190l-94 -94q73 -123 73 -273q0 -226 -153 -374t-387 -148q-147 0 -266 62l-97 -97l-194 190l92 92q-75 123 -75 275q0 226 153 374t387 148zM582 705q-83 0 -138 -59t-55 -150q0 -13 2 -35l238 238q-30 6 -47 6zM775 496q0 9 -2 31
l-235 -235q25 -5 44 -5q83 0 138 59t55 150z" />
    <glyph glyph-name="ugrave" unicode="&#xf9;" horiz-adv-x="1136" 
d="M1054 426q0 -222 -134 -337t-352 -115t-352 115.5t-134 337.5v564h356v-534q0 -74 35 -113t95 -39t95 39t35 113v534h356v-565zM180 1449h398l221 -346h-329z" />
    <glyph glyph-name="uacute" unicode="&#xfa;" horiz-adv-x="1136" 
d="M1054 426q0 -222 -134 -337t-352 -115t-352 115.5t-134 337.5v564h356v-534q0 -74 35 -113t95 -39t95 39t35 113v534h356v-565zM351 1103l221 346h398l-290 -346h-329z" />
    <glyph glyph-name="ucircumflex" unicode="&#xfb;" horiz-adv-x="1136" 
d="M1054 426q0 -222 -134 -337t-352 -115t-352 115.5t-134 337.5v564h356v-534q0 -74 35 -113t95 -39t95 39t35 113v534h356v-565zM674 1093l-106 136l-107 -136h-309l231 346h369l231 -346h-309z" />
    <glyph glyph-name="udieresis" unicode="&#xfc;" horiz-adv-x="1136" 
d="M1054 426q0 -222 -134 -337t-352 -115t-352 115.5t-134 337.5v564h356v-534q0 -74 35 -113t95 -39t95 39t35 113v534h356v-565zM319 1470q87 0 145.5 -58.5t58.5 -145.5t-58.5 -145.5t-145.5 -58.5t-145.5 58.5t-58.5 145.5t58.5 145.5t145.5 58.5zM809 1470
q87 0 145.5 -58.5t58.5 -145.5t-58.5 -145.5t-145.5 -58.5t-145.5 58.5t-58.5 145.5t58.5 145.5t145.5 58.5z" />
    <glyph glyph-name="yacute" unicode="&#xfd;" horiz-adv-x="1185" 
d="M469 -400h-389l334 624l-408 767h411l187 -390l186 390h390zM387 1103l221 346h398l-290 -346h-329z" />
    <glyph glyph-name="thorn" unicode="&#xfe;" horiz-adv-x="1191" 
d="M697 1018q130 0 234.5 -70.5t161 -189.5t56.5 -261q0 -143 -57 -262.5t-160.5 -190t-233.5 -70.5q-158 0 -255 97v-471h-356v1840h356v-521q97 99 254 99zM606 687q-77 0 -126.5 -53.5t-49.5 -137.5t49.5 -137.5t126.5 -53.5t126.5 53.5t49.5 137.5t-49.5 137.5
t-126.5 53.5z" />
    <glyph glyph-name="ydieresis" unicode="&#xff;" horiz-adv-x="1185" 
d="M469 -400h-389l334 624l-408 767h411l187 -390l186 390h390zM355 1470q87 0 145.5 -58.5t58.5 -145.5t-58.5 -145.5t-145.5 -58.5t-145.5 58.5t-58.5 145.5t58.5 145.5t145.5 58.5zM845 1470q87 0 145.5 -58.5t58.5 -145.5t-58.5 -145.5t-145.5 -58.5t-145.5 58.5
t-58.5 145.5t58.5 145.5t145.5 58.5z" />
    <glyph glyph-name="Amacron" unicode="&#x100;" horiz-adv-x="1518" 
d="M1513 0h-403l-93 267h-523l-92 -267h-397l530 1400h448zM612 606h287l-143 414zM389 1808h740v-284h-740v284z" />
    <glyph glyph-name="amacron" unicode="&#x101;" horiz-adv-x="1192" 
d="M1105 0h-342v87q-101 -113 -270 -113q-130 0 -233.5 70.5t-160.5 190t-57 262.5q0 142 56.5 261t161 189.5t234.5 70.5q167 0 269 -116v89h342v-991zM585 687q-77 0 -126.5 -53.5t-49.5 -137.5t49.5 -137.5t126.5 -53.5t126.5 53.5t49.5 137.5t-49.5 137.5t-126.5 53.5z
M240 1408h740v-284h-740v284z" />
    <glyph glyph-name="Abreve" unicode="&#x102;" horiz-adv-x="1518" 
d="M1513 0h-403l-93 267h-523l-92 -267h-397l530 1400h448zM612 606h287l-143 414zM608 1898q38 -146 151 -146t151 146l258 -72q-36 -162 -143.5 -253t-265.5 -91t-265.5 91t-143.5 253z" />
    <glyph glyph-name="abreve" unicode="&#x103;" horiz-adv-x="1192" 
d="M1105 0h-342v87q-101 -113 -270 -113q-130 0 -233.5 70.5t-160.5 190t-57 262.5q0 142 56.5 261t161 189.5t234.5 70.5q167 0 269 -116v89h342v-991zM585 687q-77 0 -126.5 -53.5t-49.5 -137.5t49.5 -137.5t126.5 -53.5t126.5 53.5t49.5 137.5t-49.5 137.5t-126.5 53.5z
M459 1498q38 -146 151 -146t151 146l258 -72q-36 -162 -143.5 -253t-265.5 -91t-265.5 91t-143.5 253z" />
    <glyph glyph-name="Aogonek" unicode="&#x104;" horiz-adv-x="1518" 
d="M1513 0h-403l-93 267h-523l-92 -267h-397l530 1400h448zM612 606h287l-143 414zM1521 -318q-45 -40 -123 -71t-172 -31q-116 0 -194 57.5t-78 159.5q0 166 298 281l115 -69q-134 -48 -134 -117q0 -52 61 -52q31 0 69 27z" />
    <glyph glyph-name="aogonek" unicode="&#x105;" horiz-adv-x="1192" 
d="M1105 0h-342v87q-101 -113 -270 -113q-130 0 -233.5 70.5t-160.5 190t-57 262.5q0 142 56.5 261t161 189.5t234.5 70.5q167 0 269 -116v89h342v-991zM585 687q-77 0 -126.5 -53.5t-49.5 -137.5t49.5 -137.5t126.5 -53.5t126.5 53.5t49.5 137.5t-49.5 137.5t-126.5 53.5z
M1183 -318q-45 -40 -123 -71t-172 -31q-116 0 -194 57.5t-78 159.5q0 166 298 281l115 -69q-134 -48 -134 -117q0 -52 61 -52q31 0 69 27z" />
    <glyph glyph-name="Cacute" unicode="&#x106;" horiz-adv-x="1469" 
d="M789 1426q207 0 377 -94t262 -261l-337 -186q-103 177 -308 177q-147 0 -242.5 -101.5t-95.5 -260.5q0 -170 100 -266t239 -96q200 0 316 176l312 -218q-103 -152 -261.5 -237t-361.5 -85q-214 0 -382.5 92t-262.5 257.5t-94 376.5t94 376.5t262.5 257.5t382.5 92z
M553 1503l221 346h398l-290 -346h-329z" />
    <glyph glyph-name="cacute" unicode="&#x107;" horiz-adv-x="1043" 
d="M582 1018q286 0 445 -240l-292 -184q-62 93 -161 93q-69 0 -118.5 -51t-49.5 -140t48 -140t117 -51q101 0 164 94l293 -187q-75 -113 -187.5 -175.5t-258.5 -62.5q-237 0 -388.5 146t-151.5 376t151.5 376t388.5 146zM358 1103l221 346h398l-290 -346h-329z" />
    <glyph glyph-name="Ccircumflex" unicode="&#x108;" horiz-adv-x="1469" 
d="M789 1426q207 0 377 -94t262 -261l-337 -186q-103 177 -308 177q-147 0 -242.5 -101.5t-95.5 -260.5q0 -170 100 -266t239 -96q200 0 316 176l312 -218q-103 -152 -261.5 -237t-361.5 -85q-214 0 -382.5 92t-262.5 257.5t-94 376.5t94 376.5t262.5 257.5t382.5 92z
M889 1493l-106 136l-107 -136h-309l231 346h369l231 -346h-309z" />
    <glyph glyph-name="ccircumflex" unicode="&#x109;" horiz-adv-x="1043" 
d="M582 1018q286 0 445 -240l-292 -184q-62 93 -161 93q-69 0 -118.5 -51t-49.5 -140t48 -140t117 -51q101 0 164 94l293 -187q-75 -113 -187.5 -175.5t-258.5 -62.5q-237 0 -388.5 146t-151.5 376t151.5 376t388.5 146zM681 1093l-106 136l-107 -136h-309l231 346h369
l231 -346h-309z" />
    <glyph glyph-name="Cdotaccent" unicode="&#x10a;" horiz-adv-x="1469" 
d="M789 1426q207 0 377 -94t262 -261l-337 -186q-103 177 -308 177q-147 0 -242.5 -101.5t-95.5 -260.5q0 -170 100 -266t239 -96q200 0 316 176l312 -218q-103 -152 -261.5 -237t-361.5 -85q-214 0 -382.5 92t-262.5 257.5t-94 376.5t94 376.5t262.5 257.5t382.5 92z
M758 1890q92 0 153 -61t61 -153t-61 -153t-153 -61t-153 61t-61 153t61 153t153 61z" />
    <glyph glyph-name="cdotaccent" unicode="&#x10b;" horiz-adv-x="1043" 
d="M582 1018q286 0 445 -240l-292 -184q-62 93 -161 93q-69 0 -118.5 -51t-49.5 -140t48 -140t117 -51q101 0 164 94l293 -187q-75 -113 -187.5 -175.5t-258.5 -62.5q-237 0 -388.5 146t-151.5 376t151.5 376t388.5 146zM575 1485q87 0 145.5 -58.5t58.5 -145.5
t-58.5 -145.5t-145.5 -58.5t-145.5 58.5t-58.5 145.5t58.5 145.5t145.5 58.5z" />
    <glyph glyph-name="Ccaron" unicode="&#x10c;" horiz-adv-x="1469" 
d="M789 1426q207 0 377 -94t262 -261l-337 -186q-103 177 -308 177q-147 0 -242.5 -101.5t-95.5 -260.5q0 -170 100 -266t239 -96q200 0 316 176l312 -218q-103 -152 -261.5 -237t-361.5 -85q-214 0 -382.5 92t-262.5 257.5t-94 376.5t94 376.5t262.5 257.5t382.5 92z
M676 1839l107 -136l106 136h309l-231 -346h-369l-231 346h309z" />
    <glyph glyph-name="ccaron" unicode="&#x10d;" horiz-adv-x="1043" 
d="M582 1018q286 0 445 -240l-292 -184q-62 93 -161 93q-69 0 -118.5 -51t-49.5 -140t48 -140t117 -51q101 0 164 94l293 -187q-75 -113 -187.5 -175.5t-258.5 -62.5q-237 0 -388.5 146t-151.5 376t151.5 376t388.5 146zM468 1439l107 -136l106 136h309l-231 -346h-369
l-231 346h309z" />
    <glyph glyph-name="Dcaron" unicode="&#x10e;" horiz-adv-x="1494" 
d="M718 1400q328 0 527 -192t199 -508t-199 -508t-527 -192h-618v1400h618zM480 1051v-702h228q166 0 253.5 96.5t87.5 254.5q0 160 -87.5 255.5t-253.5 95.5h-228zM585 1839l107 -136l106 136h309l-231 -346h-369l-231 346h309z" />
    <glyph glyph-name="dcaron" unicode="&#x10f;" horiz-adv-x="1386" 
d="M494 1018q155 0 254 -99v521h356v-1440h-341v87q-101 -113 -270 -113q-130 0 -233.5 70.5t-160.5 190t-57 262.5q0 142 56.5 261t161 189.5t234.5 70.5zM585 687q-77 0 -126.5 -53.5t-49.5 -137.5t49.5 -137.5t126.5 -53.5t126.5 53.5t49.5 137.5t-49.5 137.5
t-126.5 53.5zM1182 940v500h334l-70 -500h-264z" />
    <glyph glyph-name="Dcroat" unicode="&#x110;" horiz-adv-x="1586" 
d="M810 1400q328 0 527 -192t199 -508t-199 -508t-527 -192h-618v548h-132v320h132v532h618zM870 548h-298v-199h228q166 0 253.5 96.5t87.5 254.5q0 160 -87.5 255.5t-253.5 95.5h-228v-183h298v-320z" />
    <glyph glyph-name="dcroat" unicode="&#x111;" horiz-adv-x="1201" 
d="M1201 1069h-97v-1069h-341v87q-101 -113 -270 -113q-130 0 -233.5 70.5t-160.5 190t-57 262.5q0 142 56.5 261t161 189.5t234.5 70.5q155 0 254 -99v150h-307v270h307v101h356v-101h97v-270zM585 687q-77 0 -126.5 -53.5t-49.5 -137.5t49.5 -137.5t126.5 -53.5
t126.5 53.5t49.5 137.5t-49.5 137.5t-126.5 53.5z" />
    <glyph glyph-name="Emacron" unicode="&#x112;" horiz-adv-x="1274" 
d="M1194 0h-1094v1400h1094v-338h-714v-185h664v-338h-664v-201h714v-338zM277 1808h740v-284h-740v284z" />
    <glyph glyph-name="emacron" unicode="&#x113;" horiz-adv-x="1106" 
d="M557 1018q224 0 365.5 -145t141.5 -377q0 -59 -7 -106h-647q36 -120 178 -120q104 0 187 80l244 -204q-74 -80 -189 -126t-259 -46q-238 0 -383.5 141.5t-145.5 371.5q0 236 143 383.5t372 147.5zM559 719q-113 0 -148 -114h298q-37 114 -150 114zM187 1408h740v-284
h-740v284z" />
    <glyph glyph-name="Ebreve" unicode="&#x114;" horiz-adv-x="1274" 
d="M1194 0h-1094v1400h1094v-338h-714v-185h664v-338h-664v-201h714v-338zM496 1898q38 -146 151 -146t151 146l258 -72q-36 -162 -143.5 -253t-265.5 -91t-265.5 91t-143.5 253z" />
    <glyph glyph-name="ebreve" unicode="&#x115;" horiz-adv-x="1106" 
d="M557 1018q224 0 365.5 -145t141.5 -377q0 -59 -7 -106h-647q36 -120 178 -120q104 0 187 80l244 -204q-74 -80 -189 -126t-259 -46q-238 0 -383.5 141.5t-145.5 371.5q0 236 143 383.5t372 147.5zM559 719q-113 0 -148 -114h298q-37 114 -150 114zM406 1498
q38 -146 151 -146t151 146l258 -72q-36 -162 -143.5 -253t-265.5 -91t-265.5 91t-143.5 253z" />
    <glyph glyph-name="Edotaccent" unicode="&#x116;" horiz-adv-x="1274" 
d="M1194 0h-1094v1400h1094v-338h-714v-185h664v-338h-664v-201h714v-338zM622 1890q92 0 153 -61t61 -153t-61 -153t-153 -61t-153 61t-61 153t61 153t153 61z" />
    <glyph glyph-name="edotaccent" unicode="&#x117;" horiz-adv-x="1106" 
d="M557 1018q224 0 365.5 -145t141.5 -377q0 -59 -7 -106h-647q36 -120 178 -120q104 0 187 80l244 -204q-74 -80 -189 -126t-259 -46q-238 0 -383.5 141.5t-145.5 371.5q0 236 143 383.5t372 147.5zM559 719q-113 0 -148 -114h298q-37 114 -150 114zM557 1485
q87 0 145.5 -58.5t58.5 -145.5t-58.5 -145.5t-145.5 -58.5t-145.5 58.5t-58.5 145.5t58.5 145.5t145.5 58.5z" />
    <glyph glyph-name="Eogonek" unicode="&#x118;" horiz-adv-x="1274" 
d="M1194 0h-1094v1400h1094v-338h-714v-185h664v-338h-664v-201h714v-338zM1076 29q-162 -70 -162 -142q0 -22 14.5 -34.5t39.5 -12.5q42 0 81 36l184 -171q-130 -125 -321 -125q-135 0 -221 58t-86 159q0 45 17.5 84t43 66.5t67.5 54.5t76.5 43.5t84.5 37.5z" />
    <glyph glyph-name="eogonek" unicode="&#x119;" horiz-adv-x="1106" 
d="M557 1018q224 0 365.5 -145t141.5 -377q0 -59 -7 -106h-647q36 -120 178 -120q104 0 187 80l244 -204q-74 -80 -189 -126t-259 -46q-238 0 -383.5 141.5t-145.5 371.5q0 236 143 383.5t372 147.5zM559 719q-113 0 -148 -114h298q-37 114 -150 114zM1008 -295
q-130 -125 -321 -125q-135 0 -221 58t-86 159q0 45 17.5 84t43 66.5t67.5 54.5t76.5 43.5t84.5 37.5l182 -54q-162 -70 -162 -142q0 -22 14.5 -34.5t39.5 -12.5q42 0 81 36z" />
    <glyph glyph-name="Ecaron" unicode="&#x11a;" horiz-adv-x="1274" 
d="M1194 0h-1094v1400h1094v-338h-714v-185h664v-338h-664v-201h714v-338zM540 1839l107 -136l106 136h309l-231 -346h-369l-231 346h309z" />
    <glyph glyph-name="ecaron" unicode="&#x11b;" horiz-adv-x="1106" 
d="M557 1018q224 0 365.5 -145t141.5 -377q0 -59 -7 -106h-647q36 -120 178 -120q104 0 187 80l244 -204q-74 -80 -189 -126t-259 -46q-238 0 -383.5 141.5t-145.5 371.5q0 236 143 383.5t372 147.5zM559 719q-113 0 -148 -114h298q-37 114 -150 114zM450 1439l107 -136
l106 136h309l-231 -346h-369l-231 346h309z" />
    <glyph glyph-name="Gcircumflex" unicode="&#x11c;" horiz-adv-x="1526" 
d="M800 1426q320 0 512 -194l-268 -264q-105 103 -267 103q-148 0 -243 -103.5t-95 -267.5q0 -93 28.5 -167t76.5 -120t109.5 -70.5t129.5 -24.5q257 0 317 206h-328v278h696q8 -50 8 -126q0 -136 -38.5 -252t-104.5 -197t-153 -139t-183.5 -85.5t-196.5 -27.5
q-163 0 -302.5 54t-238 149t-154 230t-55.5 292q0 158 55.5 293t154 230t238 149t302.5 54zM881 1493l-106 136l-107 -136h-309l231 346h369l231 -346h-309z" />
    <glyph glyph-name="gcircumflex" unicode="&#x11d;" horiz-adv-x="1186" 
d="M493 1018q168 0 264 -114v87h342v-885q0 -246 -147.5 -386t-391.5 -140q-283 0 -468 130l126 280q135 -101 310 -101q39 0 77 11t72 33.5t54.5 62.5t20.5 93v45q-96 -108 -259 -108q-131 0 -235 67t-160 179.5t-56 249.5t56 249.5t160 179.5t235 67zM582 695
q-74 0 -122.5 -49t-48.5 -124t48.5 -124t122.5 -49q73 0 120 49t47 124t-47 124t-120 49zM697 1093l-106 136l-107 -136h-309l231 346h369l231 -346h-309z" />
    <glyph glyph-name="Gbreve" unicode="&#x11e;" horiz-adv-x="1526" 
d="M800 1426q320 0 512 -194l-268 -264q-105 103 -267 103q-148 0 -243 -103.5t-95 -267.5q0 -93 28.5 -167t76.5 -120t109.5 -70.5t129.5 -24.5q257 0 317 206h-328v278h696q8 -50 8 -126q0 -136 -38.5 -252t-104.5 -197t-153 -139t-183.5 -85.5t-196.5 -27.5
q-163 0 -302.5 54t-238 149t-154 230t-55.5 292q0 158 55.5 293t154 230t238 149t302.5 54zM624 1898q38 -146 151 -146t151 146l258 -72q-36 -162 -143.5 -253t-265.5 -91t-265.5 91t-143.5 253z" />
    <glyph glyph-name="gbreve" unicode="&#x11f;" horiz-adv-x="1186" 
d="M493 1018q168 0 264 -114v87h342v-885q0 -246 -147.5 -386t-391.5 -140q-283 0 -468 130l126 280q135 -101 310 -101q39 0 77 11t72 33.5t54.5 62.5t20.5 93v45q-96 -108 -259 -108q-131 0 -235 67t-160 179.5t-56 249.5t56 249.5t160 179.5t235 67zM582 695
q-74 0 -122.5 -49t-48.5 -124t48.5 -124t122.5 -49q73 0 120 49t47 124t-47 124t-120 49zM440 1498q38 -146 151 -146t151 146l258 -72q-36 -162 -143.5 -253t-265.5 -91t-265.5 91t-143.5 253z" />
    <glyph glyph-name="Gdotaccent" unicode="&#x120;" horiz-adv-x="1526" 
d="M800 1426q320 0 512 -194l-268 -264q-105 103 -267 103q-148 0 -243 -103.5t-95 -267.5q0 -93 28.5 -167t76.5 -120t109.5 -70.5t129.5 -24.5q257 0 317 206h-328v278h696q8 -50 8 -126q0 -136 -38.5 -252t-104.5 -197t-153 -139t-183.5 -85.5t-196.5 -27.5
q-163 0 -302.5 54t-238 149t-154 230t-55.5 292q0 158 55.5 293t154 230t238 149t302.5 54zM750 1890q92 0 153 -61t61 -153t-61 -153t-153 -61t-153 61t-61 153t61 153t153 61z" />
    <glyph glyph-name="gdotaccent" unicode="&#x121;" horiz-adv-x="1186" 
d="M493 1018q168 0 264 -114v87h342v-885q0 -246 -147.5 -386t-391.5 -140q-283 0 -468 130l126 280q135 -101 310 -101q39 0 77 11t72 33.5t54.5 62.5t20.5 93v45q-96 -108 -259 -108q-131 0 -235 67t-160 179.5t-56 249.5t56 249.5t160 179.5t235 67zM582 695
q-74 0 -122.5 -49t-48.5 -124t48.5 -124t122.5 -49q73 0 120 49t47 124t-47 124t-120 49zM591 1485q87 0 145.5 -58.5t58.5 -145.5t-58.5 -145.5t-145.5 -58.5t-145.5 58.5t-58.5 145.5t58.5 145.5t145.5 58.5z" />
    <glyph glyph-name="Gcommaaccent" unicode="&#x122;" horiz-adv-x="1526" 
d="M800 1426q320 0 512 -194l-268 -264q-105 103 -267 103q-148 0 -243 -103.5t-95 -267.5q0 -93 28.5 -167t76.5 -120t109.5 -70.5t129.5 -24.5q257 0 317 206h-328v278h696q8 -50 8 -126q0 -136 -38.5 -252t-104.5 -197t-153 -139t-183.5 -85.5t-196.5 -27.5
q-163 0 -302.5 54t-238 149t-154 230t-55.5 292q0 158 55.5 293t154 230t238 149t302.5 54zM944 -77l-110 -430h-275l54 430h331z" />
    <glyph glyph-name="gcommaaccent" unicode="&#x123;" horiz-adv-x="1186" 
d="M493 1018q168 0 264 -114v87h342v-885q0 -246 -147.5 -386t-391.5 -140q-283 0 -468 130l126 280q135 -101 310 -101q39 0 77 11t72 33.5t54.5 62.5t20.5 93v45q-96 -108 -259 -108q-131 0 -235 67t-160 179.5t-56 249.5t56 249.5t160 179.5t235 67zM582 695
q-74 0 -122.5 -49t-48.5 -124t48.5 -124t122.5 -49q73 0 120 49t47 124t-47 124t-120 49zM430 1103l110 430h275l-54 -430h-331z" />
    <glyph glyph-name="Hcircumflex" unicode="&#x124;" horiz-adv-x="1478" 
d="M480 882h518v518h380v-1400h-380v533h-518v-533h-380v1400h380v-518zM845 1493l-106 136l-107 -136h-309l231 346h369l231 -346h-309z" />
    <glyph glyph-name="hcircumflex" unicode="&#x125;" horiz-adv-x="1130" 
d="M443 913q84 105 251 105q156 0 255 -102t99 -271v-645h-356v533q0 74 -32.5 113t-92.5 39q-55 0 -89.5 -38t-34.5 -116v-531h-356v1442h356v-529zM676 1502l-106 136l-107 -136h-309l231 346h369l231 -346h-309z" />
    <glyph glyph-name="Itilde" unicode="&#x128;" horiz-adv-x="580" 
d="M480 0h-380v1400h380v-1400zM-141 1680q109 169 306 169q63 0 113.5 -18.5t83.5 -37t53 -18.5q46 0 108 70l197 -179q-109 -169 -306 -169q-63 0 -113.5 18.5t-83.5 37t-53 18.5q-46 0 -108 -70z" />
    <glyph glyph-name="itilde" unicode="&#x129;" horiz-adv-x="530" 
d="M443 0h-356v991h356v-991zM-175 1280q109 169 306 169q63 0 113.5 -18.5t83.5 -37t53 -18.5q46 0 108 70l197 -179q-109 -169 -306 -169q-63 0 -113.5 18.5t-83.5 37t-53 18.5q-46 0 -108 -70z" />
    <glyph glyph-name="Imacron" unicode="&#x12a;" horiz-adv-x="580" 
d="M480 0h-380v1400h380v-1400zM-80 1808h740v-284h-740v284z" />
    <glyph glyph-name="imacron" unicode="&#x12b;" horiz-adv-x="530" 
d="M443 0h-356v991h356v-991zM-106 1408h740v-284h-740v284z" />
    <glyph glyph-name="Ibreve" unicode="&#x12c;" horiz-adv-x="580" 
d="M480 0h-380v1400h380v-1400zM139 1898q38 -146 151 -146t151 146l258 -72q-36 -162 -143.5 -253t-265.5 -91t-265.5 91t-143.5 253z" />
    <glyph glyph-name="ibreve" unicode="&#x12d;" horiz-adv-x="530" 
d="M443 0h-356v991h356v-991zM113 1498q38 -146 151 -146t151 146l258 -72q-36 -162 -143.5 -253t-265.5 -91t-265.5 91t-143.5 253z" />
    <glyph glyph-name="Iogonek" unicode="&#x12e;" horiz-adv-x="580" 
d="M480 0h-380v1400h380v-1400zM583 -318q-45 -40 -123 -71t-172 -31q-116 0 -194 55t-78 152q0 55 28.5 104.5t75.5 86t88 59t86 41.5l115 -69q-114 -49 -114 -117q0 -52 61 -52q31 0 69 27z" />
    <glyph glyph-name="iogonek" unicode="&#x12f;" horiz-adv-x="530" 
d="M558 -318q-45 -40 -123 -71t-172 -31q-116 0 -194 55t-78 152q0 55 28.5 104.5t75.5 86t88 59t86 41.5l115 -69q-114 -49 -114 -117q0 -52 61 -52q31 0 69 27zM443 0h-356v991h356v-991zM264 1485q87 0 145.5 -58.5t58.5 -145.5t-58.5 -145.5t-145.5 -58.5t-145.5 58.5
t-58.5 145.5t58.5 145.5t145.5 58.5z" />
    <glyph glyph-name="Idotaccent" unicode="&#x130;" horiz-adv-x="580" 
d="M480 0h-380v1400h380v-1400zM265 1890q91 0 152.5 -61t61.5 -153t-61.5 -153t-152.5 -61t-152.5 61t-61.5 153t61.5 153t152.5 61z" />
    <glyph glyph-name="dotlessi" unicode="&#x131;" horiz-adv-x="530" 
d="M443 0h-356v991h356v-991z" />
    <glyph glyph-name="Kcommaaccent" unicode="&#x136;" horiz-adv-x="1423" 
d="M588 536h-108v-536h-380v1400h380v-526h110l353 526h462l-507 -683l552 -717h-467zM889 -77l-110 -430h-275l54 430h331z" />
    <glyph glyph-name="kcommaaccent" unicode="&#x137;" horiz-adv-x="1113" 
d="M443 682h59l200 309h428l-347 -468l347 -523h-426l-212 369h-49v-369h-356v1440h356v-758zM767 -77l-110 -430h-275l54 430h331z" />
    <glyph glyph-name="Lacute" unicode="&#x139;" horiz-adv-x="1174" 
d="M1154 0h-1054v1400h380v-1050h674v-350zM60 1503l221 346h398l-290 -346h-329z" />
    <glyph glyph-name="lacute" unicode="&#x13a;" horiz-adv-x="530" 
d="M443 0h-356v1440h356v-1440zM18 1523l221 346h398l-290 -346h-329z" />
    <glyph glyph-name="Lcommaaccent" unicode="&#x13b;" horiz-adv-x="1174" 
d="M1154 0h-1054v1400h380v-1050h674v-350zM808 -77l-110 -430h-275l54 430h331z" />
    <glyph glyph-name="lcommaaccent" unicode="&#x13c;" horiz-adv-x="530" 
d="M443 0h-356v1440h356v-1440zM458 -77l-110 -430h-275l54 430h331z" />
    <glyph glyph-name="Lcaron" unicode="&#x13d;" horiz-adv-x="1174" 
d="M1154 0h-1054v1400h380v-1050h674v-350zM600 901v500h334l-70 -500h-264z" />
    <glyph glyph-name="lcaron" unicode="&#x13e;" horiz-adv-x="712" 
d="M443 0h-356v1440h356v-1440zM508 940v500h334l-70 -500h-264z" />
    <glyph glyph-name="Ldot" unicode="&#x13f;" horiz-adv-x="1174" 
d="M1154 0h-1054v1400h380v-1050h674v-350zM847 946q91 0 152.5 -61t61.5 -153t-61.5 -153t-152.5 -61t-152.5 61t-61.5 153t61.5 153t152.5 61z" />
    <glyph glyph-name="ldot" unicode="&#x140;" horiz-adv-x="826" 
d="M443 0h-356v1440h356v-1440zM731 915q79 0 131.5 -53t52.5 -131t-52.5 -131t-131.5 -53q-78 0 -130.5 53t-52.5 131t52.5 131t130.5 53z" />
    <glyph glyph-name="Lslash" unicode="&#x141;" horiz-adv-x="1266" 
d="M1246 0h-1054v366l-132 -74v356l132 74v678h380v-466l382 214v-356l-382 -214v-228h674v-350z" />
    <glyph glyph-name="lslash" unicode="&#x142;" horiz-adv-x="768" 
d="M562 1013l180 101v-344l-180 -101v-669h-356v470l-180 -100v344l180 100v626h356v-427z" />
    <glyph glyph-name="Nacute" unicode="&#x143;" horiz-adv-x="1527" 
d="M1427 0h-370l-577 787v-787h-380v1400h370l577 -787v787h380v-1400zM550 1503l221 346h398l-290 -346h-329z" />
    <glyph glyph-name="nacute" unicode="&#x144;" horiz-adv-x="1130" 
d="M694 1018q156 0 255 -102t99 -271v-645h-356v533q0 74 -32.5 113t-92.5 39q-56 0 -90 -38.5t-34 -115.5v-531h-356v991h339v-102q84 129 268 129zM357 1103l221 346h398l-290 -346h-329z" />
    <glyph glyph-name="Ncommaaccent" unicode="&#x145;" horiz-adv-x="1527" 
d="M1427 0h-370l-577 787v-787h-380v1400h370l577 -787v787h380v-1400zM959 -77l-110 -430h-275l54 430h331z" />
    <glyph glyph-name="ncommaaccent" unicode="&#x146;" horiz-adv-x="1130" 
d="M694 1018q156 0 255 -102t99 -271v-645h-356v533q0 74 -32.5 113t-92.5 39q-56 0 -90 -38.5t-34 -115.5v-531h-356v991h339v-102q84 129 268 129zM761 -77l-110 -430h-275l54 430h331z" />
    <glyph glyph-name="Ncaron" unicode="&#x147;" horiz-adv-x="1527" 
d="M1427 0h-370l-577 787v-787h-380v1400h370l577 -787v787h380v-1400zM673 1839l107 -136l106 136h309l-231 -346h-369l-231 346h309z" />
    <glyph glyph-name="ncaron" unicode="&#x148;" horiz-adv-x="1130" 
d="M694 1018q156 0 255 -102t99 -271v-645h-356v533q0 74 -32.5 113t-92.5 39q-56 0 -90 -38.5t-34 -115.5v-531h-356v991h339v-102q84 129 268 129zM467 1439l107 -136l106 136h309l-231 -346h-369l-231 346h309z" />
    <glyph glyph-name="napostrophe" unicode="&#x149;" horiz-adv-x="1510" 
d="M526 1440l-177 -694h-294l88 694h383zM1074 1018q156 0 255 -102t99 -271v-645h-356v533q0 74 -32.5 113t-92.5 39q-56 0 -90 -38.5t-34 -115.5v-531h-356v991h339v-102q84 129 268 129z" />
    <glyph glyph-name="Omacron" unicode="&#x14c;" horiz-adv-x="1580" 
d="M790 1426q160 0 298 -55t235 -150.5t152 -230.5t55 -290t-55 -290t-152 -230.5t-235 -150.5t-298 -55t-298 55t-235 150.5t-152 230.5t-55 290t55 290t152 230.5t235 150.5t298 55zM790 1062q-153 0 -249 -101t-96 -261t96 -261t249 -101t249 101t96 261t-96 261
t-249 101zM420 1808h740v-284h-740v284z" />
    <glyph glyph-name="omacron" unicode="&#x14d;" horiz-adv-x="1164" 
d="M582 1018q234 0 387 -148t153 -374t-153 -374t-387 -148t-387 148t-153 374t153 374t387 148zM582 687q-77 0 -126.5 -53.5t-49.5 -137.5t49.5 -137.5t126.5 -53.5t126.5 53.5t49.5 137.5t-49.5 137.5t-126.5 53.5zM212 1408h740v-284h-740v284z" />
    <glyph glyph-name="Obreve" unicode="&#x14e;" horiz-adv-x="1580" 
d="M790 1426q160 0 298 -55t235 -150.5t152 -230.5t55 -290t-55 -290t-152 -230.5t-235 -150.5t-298 -55t-298 55t-235 150.5t-152 230.5t-55 290t55 290t152 230.5t235 150.5t298 55zM790 1062q-153 0 -249 -101t-96 -261t96 -261t249 -101t249 101t96 261t-96 261
t-249 101zM639 1898q38 -146 151 -146t151 146l258 -72q-36 -162 -143.5 -253t-265.5 -91t-265.5 91t-143.5 253z" />
    <glyph glyph-name="obreve" unicode="&#x14f;" horiz-adv-x="1164" 
d="M582 1018q234 0 387 -148t153 -374t-153 -374t-387 -148t-387 148t-153 374t153 374t387 148zM582 687q-77 0 -126.5 -53.5t-49.5 -137.5t49.5 -137.5t126.5 -53.5t126.5 53.5t49.5 137.5t-49.5 137.5t-126.5 53.5zM431 1498q38 -146 151 -146t151 146l258 -72
q-36 -162 -143.5 -253t-265.5 -91t-265.5 91t-143.5 253z" />
    <glyph glyph-name="Ohungarumlaut" unicode="&#x150;" horiz-adv-x="1580" 
d="M790 1426q160 0 298 -55t235 -150.5t152 -230.5t55 -290t-55 -290t-152 -230.5t-235 -150.5t-298 -55t-298 55t-235 150.5t-152 230.5t-55 290t55 290t152 230.5t235 150.5t298 55zM790 1062q-153 0 -249 -101t-96 -261t96 -261t249 -101t249 101t96 261t-96 261
t-249 101zM839 1503l250 346h358l-270 -346h-338zM409 1503l221 346h353l-250 -346h-324z" />
    <glyph glyph-name="ohungarumlaut" unicode="&#x151;" horiz-adv-x="1164" 
d="M582 1018q234 0 387 -148t153 -374t-153 -374t-387 -148t-387 148t-153 374t153 374t387 148zM582 687q-77 0 -126.5 -53.5t-49.5 -137.5t49.5 -137.5t126.5 -53.5t126.5 53.5t49.5 137.5t-49.5 137.5t-126.5 53.5zM628 1103l250 346h358l-270 -346h-338zM198 1103
l221 346h353l-250 -346h-324z" />
    <glyph glyph-name="OE" unicode="&#x152;" horiz-adv-x="2154" 
d="M2074 0h-1298q-328 0 -527 192t-199 508t199 508t527 192h1298v-338h-714v-185h664v-338h-664v-201h714v-338zM445 700q0 -160 87.5 -255.5t253.5 -95.5h194v702h-194q-166 0 -253.5 -96.5t-87.5 -254.5z" />
    <glyph glyph-name="oe" unicode="&#x153;" horiz-adv-x="1822" 
d="M1273 1019q225 0 366 -145t141 -378q0 -59 -7 -106h-647q36 -120 178 -120q104 0 187 80l244 -204q-77 -80 -195 -126t-265 -46q-209 0 -343 134q-140 -134 -350 -134q-234 0 -387 148t-153 374t153 374t387 148q208 0 350 -134q132 135 341 135zM582 687
q-77 0 -126.5 -53.5t-49.5 -137.5t49.5 -137.5t126.5 -53.5t126.5 53.5t49.5 137.5t-49.5 137.5t-126.5 53.5zM1275 719q-113 0 -148 -114h298q-37 114 -150 114z" />
    <glyph glyph-name="Racute" unicode="&#x154;" horiz-adv-x="1336" 
d="M724 1400q262 0 402.5 -125t140.5 -341q0 -164 -93 -274t-269 -146l381 -514h-448l-337 497h-21v-497h-380v1400h624zM480 1059v-249h240q73 0 118 31.5t45 92.5t-45 93t-118 32h-240zM415 1503l221 346h398l-290 -346h-329z" />
    <glyph glyph-name="racute" unicode="&#x155;" horiz-adv-x="805" 
d="M690 1018q39 0 89 -10l-20 -356q-86 23 -156 23q-79 0 -119 -33t-40 -111v-531h-357v991h340v-100q81 127 263 127zM213 1103l221 346h398l-290 -346h-329z" />
    <glyph glyph-name="Rcommaaccent" unicode="&#x156;" horiz-adv-x="1336" 
d="M724 1400q262 0 402.5 -125t140.5 -341q0 -164 -93 -274t-269 -146l381 -514h-448l-337 497h-21v-497h-380v1400h624zM480 1059v-249h240q73 0 118 31.5t45 92.5t-45 93t-118 32h-240zM832 -77l-110 -430h-275l54 430h331z" />
    <glyph glyph-name="rcommaaccent" unicode="&#x157;" horiz-adv-x="805" 
d="M690 1018q39 0 89 -10l-20 -356q-86 23 -156 23q-79 0 -119 -33t-40 -111v-531h-357v991h340v-100q81 127 263 127zM454 -77l-110 -430h-275l54 430h331z" />
    <glyph glyph-name="Rcaron" unicode="&#x158;" horiz-adv-x="1336" 
d="M724 1400q262 0 402.5 -125t140.5 -341q0 -164 -93 -274t-269 -146l381 -514h-448l-337 497h-21v-497h-380v1400h624zM480 1059v-249h240q73 0 118 31.5t45 92.5t-45 93t-118 32h-240zM538 1839l107 -136l106 136h309l-231 -346h-369l-231 346h309z" />
    <glyph glyph-name="rcaron" unicode="&#x159;" horiz-adv-x="805" 
d="M690 1018q39 0 89 -10l-20 -356q-86 23 -156 23q-79 0 -119 -33t-40 -111v-531h-357v991h340v-100q81 127 263 127zM323 1439l107 -136l106 136h309l-231 -346h-369l-231 346h309z" />
    <glyph glyph-name="Sacute" unicode="&#x15a;" horiz-adv-x="1356" 
d="M1113 967q-216 117 -404 117q-80 0 -130 -23t-50 -68q0 -16 7.5 -29t25 -23.5t34 -17.5t47.5 -13.5t51.5 -10.5t60.5 -10.5t60 -10.5l45 -9q436 -84 436 -410q0 -103 -33.5 -186.5t-90.5 -138t-134.5 -91.5t-161.5 -53t-177 -16q-395 0 -639 174l186 310q57 -34 92 -52
t95.5 -43.5t127.5 -37t143 -11.5q81 0 129 24t48 73q0 26 -14 43.5t-54.5 31t-76 20.5t-116.5 21l-53 9q-241 42 -348 148t-101 294q6 202 161 324.5t407 122.5q157 0 290 -29t301 -118zM480 1503l221 346h398l-290 -346h-329z" />
    <glyph glyph-name="sacute" unicode="&#x15b;" horiz-adv-x="1020" 
d="M862 663q-190 73 -334 73q-49 0 -67.5 -9t-18.5 -28q0 -11 6.5 -18t24 -12t31.5 -8t45.5 -7.5t50.5 -7.5l60 -10q316 -52 316 -304q0 -171 -121.5 -264.5t-339.5 -93.5q-148 0 -272.5 25t-198.5 70l114 278q165 -90 359 -90q58 0 80.5 10t22.5 32t-30.5 32t-120.5 23
l-39 6q-184 28 -269.5 105t-85.5 215q0 163 113.5 250.5t322.5 87.5q121 0 208 -15.5t228 -61.5zM312 1103l221 346h398l-290 -346h-329z" />
    <glyph glyph-name="Scircumflex" unicode="&#x15c;" horiz-adv-x="1356" 
d="M1113 967q-216 117 -404 117q-80 0 -130 -23t-50 -68q0 -16 7.5 -29t25 -23.5t34 -17.5t47.5 -13.5t51.5 -10.5t60.5 -10.5t60 -10.5l45 -9q436 -84 436 -410q0 -103 -33.5 -186.5t-90.5 -138t-134.5 -91.5t-161.5 -53t-177 -16q-395 0 -639 174l186 310q57 -34 92 -52
t95.5 -43.5t127.5 -37t143 -11.5q81 0 129 24t48 73q0 26 -14 43.5t-54.5 31t-76 20.5t-116.5 21l-53 9q-241 42 -348 148t-101 294q6 202 161 324.5t407 122.5q157 0 290 -29t301 -118zM816 1493l-106 136l-107 -136h-309l231 346h369l231 -346h-309z" />
    <glyph glyph-name="scircumflex" unicode="&#x15d;" horiz-adv-x="1020" 
d="M862 663q-190 73 -334 73q-49 0 -67.5 -9t-18.5 -28q0 -11 6.5 -18t24 -12t31.5 -8t45.5 -7.5t50.5 -7.5l60 -10q316 -52 316 -304q0 -171 -121.5 -264.5t-339.5 -93.5q-148 0 -272.5 25t-198.5 70l114 278q165 -90 359 -90q58 0 80.5 10t22.5 32t-30.5 32t-120.5 23
l-39 6q-184 28 -269.5 105t-85.5 215q0 163 113.5 250.5t322.5 87.5q121 0 208 -15.5t228 -61.5zM635 1093l-106 136l-107 -136h-309l231 346h369l231 -346h-309z" />
    <glyph glyph-name="Scedilla" unicode="&#x15e;" horiz-adv-x="1356" 
d="M780 -321h-340l111 328h332zM1113 967q-216 117 -404 117q-80 0 -130 -23t-50 -68q0 -16 7.5 -29t25 -23.5t34 -17.5t47.5 -13.5t51.5 -10.5t60.5 -10.5t60 -10.5l45 -9q436 -84 436 -410q0 -103 -33.5 -186.5t-90.5 -138t-134.5 -91.5t-161.5 -53t-177 -16
q-395 0 -639 174l186 310q57 -34 92 -52t95.5 -43.5t127.5 -37t143 -11.5q81 0 129 24t48 73q0 26 -14 43.5t-54.5 31t-76 20.5t-116.5 21l-53 9q-241 42 -348 148t-101 294q6 202 161 324.5t407 122.5q157 0 290 -29t301 -118z" />
    <glyph glyph-name="scedilla" unicode="&#x15f;" horiz-adv-x="1020" 
d="M862 663q-190 73 -334 73q-49 0 -67.5 -9t-18.5 -28q0 -11 6.5 -18t24 -12t31.5 -8t45.5 -7.5t50.5 -7.5l60 -10q316 -52 316 -304q0 -171 -121.5 -264.5t-339.5 -93.5q-148 0 -272.5 25t-198.5 70l114 278q165 -90 359 -90q58 0 80.5 10t22.5 32t-30.5 32t-120.5 23
l-39 6q-184 28 -269.5 105t-85.5 215q0 163 113.5 250.5t322.5 87.5q121 0 208 -15.5t228 -61.5zM581 -321h-316l111 328h308z" />
    <glyph glyph-name="Scaron" unicode="&#x160;" horiz-adv-x="1356" 
d="M1113 967q-216 117 -404 117q-80 0 -130 -23t-50 -68q0 -16 7.5 -29t25 -23.5t34 -17.5t47.5 -13.5t51.5 -10.5t60.5 -10.5t60 -10.5l45 -9q436 -84 436 -410q0 -103 -33.5 -186.5t-90.5 -138t-134.5 -91.5t-161.5 -53t-177 -16q-395 0 -639 174l186 310q57 -34 92 -52
t95.5 -43.5t127.5 -37t143 -11.5q81 0 129 24t48 73q0 26 -14 43.5t-54.5 31t-76 20.5t-116.5 21l-53 9q-241 42 -348 148t-101 294q6 202 161 324.5t407 122.5q157 0 290 -29t301 -118zM603 1839l107 -136l106 136h309l-231 -346h-369l-231 346h309z" />
    <glyph glyph-name="scaron" unicode="&#x161;" horiz-adv-x="1020" 
d="M862 663q-190 73 -334 73q-49 0 -67.5 -9t-18.5 -28q0 -11 6.5 -18t24 -12t31.5 -8t45.5 -7.5t50.5 -7.5l60 -10q316 -52 316 -304q0 -171 -121.5 -264.5t-339.5 -93.5q-148 0 -272.5 25t-198.5 70l114 278q165 -90 359 -90q58 0 80.5 10t22.5 32t-30.5 32t-120.5 23
l-39 6q-184 28 -269.5 105t-85.5 215q0 163 113.5 250.5t322.5 87.5q121 0 208 -15.5t228 -61.5zM422 1439l107 -136l106 136h309l-231 -346h-369l-231 346h309z" />
    <glyph glyph-name="Tcommaaccent" unicode="&#x162;" horiz-adv-x="1216" 
d="M677 -321h-340l111 328h332zM1196 1050h-398v-1050h-380v1050h-398v350h1176v-350z" />
    <glyph glyph-name="tcommaaccent" unicode="&#x163;" horiz-adv-x="980" 
d="M884 677h-322v-232q0 -140 133 -140q61 0 161 60l119 -276q-81 -57 -166 -86t-206 -29q-203 0 -300 112t-97 304v287h-180v314h180v284h356v-284h322v-314zM623 -321h-316l111 328h308z" />
    <glyph glyph-name="Tcaron" unicode="&#x164;" horiz-adv-x="1216" 
d="M1196 1050h-398v-1050h-380v1050h-398v350h1176v-350zM516 1839l107 -136l106 136h309l-231 -346h-369l-231 346h309z" />
    <glyph glyph-name="tcaron" unicode="&#x165;" horiz-adv-x="980" 
d="M884 677h-322v-232q0 -140 133 -140q61 0 161 60l119 -276q-81 -57 -166 -86t-206 -29q-203 0 -300 112t-97 304v287h-180v314h180v284h356v-284h322v-314zM608 1040v500h334l-70 -500h-264z" />
    <glyph glyph-name="Utilde" unicode="&#x168;" horiz-adv-x="1420" 
d="M1330 571q0 -287 -160 -442t-460 -155t-460 155t-160 442v829h381v-818q0 -119 63 -181.5t176 -62.5t176 62.5t63 181.5v818h381v-829zM279 1680q109 169 306 169q63 0 113.5 -18.5t83.5 -37t53 -18.5q46 0 108 70l197 -179q-109 -169 -306 -169q-63 0 -113.5 18.5
t-83.5 37t-53 18.5q-46 0 -108 -70z" />
    <glyph glyph-name="utilde" unicode="&#x169;" horiz-adv-x="1136" 
d="M1054 426q0 -222 -134 -337t-352 -115t-352 115.5t-134 337.5v564h356v-534q0 -74 35 -113t95 -39t95 39t35 113v534h356v-565zM129 1280q109 169 306 169q63 0 113.5 -18.5t83.5 -37t53 -18.5q46 0 108 70l197 -179q-109 -169 -306 -169q-63 0 -113.5 18.5t-83.5 37
t-53 18.5q-46 0 -108 -70z" />
    <glyph glyph-name="Umacron" unicode="&#x16a;" horiz-adv-x="1420" 
d="M1330 571q0 -287 -160 -442t-460 -155t-460 155t-160 442v829h381v-818q0 -119 63 -181.5t176 -62.5t176 62.5t63 181.5v818h381v-829zM340 1808h740v-284h-740v284z" />
    <glyph glyph-name="umacron" unicode="&#x16b;" horiz-adv-x="1136" 
d="M1054 426q0 -222 -134 -337t-352 -115t-352 115.5t-134 337.5v564h356v-534q0 -74 35 -113t95 -39t95 39t35 113v534h356v-565zM198 1408h740v-284h-740v284z" />
    <glyph glyph-name="Ubreve" unicode="&#x16c;" horiz-adv-x="1420" 
d="M1330 571q0 -287 -160 -442t-460 -155t-460 155t-160 442v829h381v-818q0 -119 63 -181.5t176 -62.5t176 62.5t63 181.5v818h381v-829zM559 1898q38 -146 151 -146t151 146l258 -72q-36 -162 -143.5 -253t-265.5 -91t-265.5 91t-143.5 253z" />
    <glyph glyph-name="ubreve" unicode="&#x16d;" horiz-adv-x="1136" 
d="M1054 426q0 -222 -134 -337t-352 -115t-352 115.5t-134 337.5v564h356v-534q0 -74 35 -113t95 -39t95 39t35 113v534h356v-565zM417 1498q38 -146 151 -146t151 146l258 -72q-36 -162 -143.5 -253t-265.5 -91t-265.5 91t-143.5 253z" />
    <glyph glyph-name="Uring" unicode="&#x16e;" horiz-adv-x="1420" 
d="M1330 571q0 -287 -160 -442t-460 -155t-460 155t-160 442v829h381v-818q0 -119 63 -181.5t176 -62.5t176 62.5t63 181.5v818h381v-829zM709 1462q-119 0 -203 82.5t-84 200.5q0 117 84 200t203 83q120 0 204 -83t84 -200q0 -118 -84 -200.5t-204 -82.5zM709 1643
q41 0 70.5 29.5t29.5 72.5q0 42 -29.5 72t-70.5 30q-40 0 -69.5 -30t-29.5 -72q0 -43 29.5 -72.5t69.5 -29.5z" />
    <glyph glyph-name="uring" unicode="&#x16f;" horiz-adv-x="1136" 
d="M1054 426q0 -222 -134 -337t-352 -115t-352 115.5t-134 337.5v564h356v-534q0 -74 35 -113t95 -39t95 39t35 113v534h356v-565zM567 1062q-119 0 -203 82.5t-84 200.5q0 117 84 200t203 83q120 0 204 -83t84 -200q0 -118 -84 -200.5t-204 -82.5zM567 1243q41 0 70.5 29.5
t29.5 72.5q0 42 -29.5 72t-70.5 30q-40 0 -69.5 -30t-29.5 -72q0 -43 29.5 -72.5t69.5 -29.5z" />
    <glyph glyph-name="Uhungarumlaut" unicode="&#x170;" horiz-adv-x="1420" 
d="M1330 571q0 -287 -160 -442t-460 -155t-460 155t-160 442v829h381v-818q0 -119 63 -181.5t176 -62.5t176 62.5t63 181.5v818h381v-829zM759 1503l250 346h358l-270 -346h-338zM329 1503l221 346h353l-250 -346h-324z" />
    <glyph glyph-name="uhungarumlaut" unicode="&#x171;" horiz-adv-x="1136" 
d="M1054 426q0 -222 -134 -337t-352 -115t-352 115.5t-134 337.5v564h356v-534q0 -74 35 -113t95 -39t95 39t35 113v534h356v-565zM614 1103l250 346h358l-270 -346h-338zM184 1103l221 346h353l-250 -346h-324z" />
    <glyph glyph-name="Uogonek" unicode="&#x172;" horiz-adv-x="1420" 
d="M1330 571q0 -287 -160 -442t-460 -155t-460 155t-160 442v829h381v-818q0 -119 63 -181.5t176 -62.5t176 62.5t63 181.5v818h381v-829zM1223 -295q-130 -125 -321 -125q-135 0 -221 58t-86 159q0 45 17.5 84t43 66.5t67.5 54.5t76.5 43.5t84.5 37.5l152 -45
q-132 -76 -132 -151q0 -22 14.5 -34.5t39.5 -12.5q42 0 81 36z" />
    <glyph glyph-name="uogonek" unicode="&#x173;" horiz-adv-x="1136" 
d="M1054 426q0 -222 -134 -337t-352 -115t-352 115.5t-134 337.5v564h356v-534q0 -74 35 -113t95 -39t95 39t35 113v534h356v-565zM1033 -295q-130 -125 -321 -125q-135 0 -221 58t-86 159q0 45 17.5 84t43 66.5t67.5 54.5t76.5 43.5t84.5 37.5l152 -45q-132 -76 -132 -151
q0 -22 14.5 -34.5t39.5 -12.5q42 0 81 36z" />
    <glyph glyph-name="Ydieresis" unicode="&#x178;" horiz-adv-x="1428" 
d="M910 530v-530h-380v525l-528 875h436l283 -529l282 529h423zM476 1870q87 0 145.5 -58.5t58.5 -145.5t-58.5 -145.5t-145.5 -58.5t-145.5 58.5t-58.5 145.5t58.5 145.5t145.5 58.5zM966 1870q87 0 145.5 -58.5t58.5 -145.5t-58.5 -145.5t-145.5 -58.5t-145.5 58.5
t-58.5 145.5t58.5 145.5t145.5 58.5z" />
    <glyph glyph-name="Zacute" unicode="&#x179;" horiz-adv-x="1280" 
d="M1220 1102l-655 -764h655v-338h-1160v298l655 764h-655v338h1160v-298zM410 1503l221 346h398l-290 -346h-329z" />
    <glyph glyph-name="zacute" unicode="&#x17a;" horiz-adv-x="1039" 
d="M967 726l-395 -412h406v-314h-917v255l406 422h-389v314h889v-265zM306 1103l221 346h398l-290 -346h-329z" />
    <glyph glyph-name="Zdotaccent" unicode="&#x17b;" horiz-adv-x="1280" 
d="M1220 1102l-655 -764h655v-338h-1160v298l655 764h-655v338h1160v-298zM615 1890q91 0 152.5 -61t61.5 -153t-61.5 -153t-152.5 -61t-152.5 61t-61.5 153t61.5 153t152.5 61z" />
    <glyph glyph-name="zdotaccent" unicode="&#x17c;" horiz-adv-x="1039" 
d="M967 726l-395 -412h406v-314h-917v255l406 422h-389v314h889v-265zM523 1485q87 0 145.5 -58.5t58.5 -145.5t-58.5 -145.5t-145.5 -58.5t-145.5 58.5t-58.5 145.5t58.5 145.5t145.5 58.5z" />
    <glyph glyph-name="Zcaron" unicode="&#x17d;" horiz-adv-x="1280" 
d="M1220 1102l-655 -764h655v-338h-1160v298l655 764h-655v338h1160v-298zM533 1839l107 -136l106 136h309l-231 -346h-369l-231 346h309z" />
    <glyph glyph-name="zcaron" unicode="&#x17e;" horiz-adv-x="1039" 
d="M967 726l-395 -412h406v-314h-917v255l406 422h-389v314h889v-265zM416 1439l107 -136l106 136h309l-231 -346h-369l-231 346h309z" />
    <glyph glyph-name="longs" unicode="&#x17f;" horiz-adv-x="701" 
d="M478 1466q212 0 358 -117l-162 -254q-32 15 -46 21t-41 12.5t-55 6.5q-48 0 -70.5 -27t-22.5 -87v-1021h-356v1030q0 214 108 325t287 111z" />
    <glyph glyph-name="Scommaaccent" unicode="&#x218;" horiz-adv-x="1356" 
d="M1113 967q-216 117 -404 117q-80 0 -130 -23t-50 -68q0 -16 7.5 -29t25 -23.5t34 -17.5t47.5 -13.5t51.5 -10.5t60.5 -10.5t60 -10.5l45 -9q436 -84 436 -410q0 -103 -33.5 -186.5t-90.5 -138t-134.5 -91.5t-161.5 -53t-177 -16q-395 0 -639 174l186 310q57 -34 92 -52
t95.5 -43.5t127.5 -37t143 -11.5q81 0 129 24t48 73q0 26 -14 43.5t-54.5 31t-76 20.5t-116.5 21l-53 9q-241 42 -348 148t-101 294q6 202 161 324.5t407 122.5q157 0 290 -29t301 -118zM892 -77l-110 -430h-275l54 430h331z" />
    <glyph glyph-name="scommaaccent" unicode="&#x219;" horiz-adv-x="1020" 
d="M862 663q-190 73 -334 73q-49 0 -67.5 -9t-18.5 -28q0 -11 6.5 -18t24 -12t31.5 -8t45.5 -7.5t50.5 -7.5l60 -10q316 -52 316 -304q0 -171 -121.5 -264.5t-339.5 -93.5q-148 0 -272.5 25t-198.5 70l114 278q165 -90 359 -90q58 0 80.5 10t22.5 32t-30.5 32t-120.5 23
l-39 6q-184 28 -269.5 105t-85.5 215q0 163 113.5 250.5t322.5 87.5q121 0 208 -15.5t228 -61.5zM702 -77l-110 -430h-275l54 430h331z" />
    <glyph glyph-name="uni021A" unicode="&#x21a;" horiz-adv-x="1216" 
d="M1196 1050h-398v-1050h-380v1050h-398v350h1176v-350zM789 -77l-110 -430h-275l54 430h331z" />
    <glyph glyph-name="uni021B" unicode="&#x21b;" horiz-adv-x="980" 
d="M884 677h-322v-232q0 -140 133 -140q61 0 161 60l119 -276q-81 -57 -166 -86t-206 -29q-203 0 -300 112t-97 304v287h-180v314h180v284h356v-284h322v-314zM744 -77l-110 -430h-275l54 430h331z" />
    <glyph glyph-name="gravecomb" unicode="&#x300;" horiz-adv-x="1" 
d="M-970 1449h398l221 -346h-329z" />
    <glyph glyph-name="acutecomb" unicode="&#x301;" horiz-adv-x="1" 
d="M-799 1103l221 346h398l-290 -346h-329z" />
    <glyph glyph-name="uni0302" unicode="&#x302;" horiz-adv-x="1" 
d="M-476 1093l-106 136l-107 -136h-309l231 346h369l231 -346h-309z" />
    <glyph glyph-name="tildecomb" unicode="&#x303;" horiz-adv-x="1" 
d="M-1021 1280q109 169 306 169q63 0 113.5 -18.5t83.5 -37t53 -18.5q46 0 108 70l197 -179q-109 -169 -306 -169q-63 0 -113.5 18.5t-83.5 37t-53 18.5q-46 0 -108 -70z" />
    <glyph glyph-name="uni0304" unicode="&#x304;" horiz-adv-x="1" 
d="M-952 1408h740v-284h-740v284z" />
    <glyph glyph-name="uni0306" unicode="&#x306;" horiz-adv-x="1" 
d="M-733 1498q38 -146 151 -146t151 146l258 -72q-36 -162 -143.5 -253t-265.5 -91t-265.5 91t-143.5 253z" />
    <glyph glyph-name="uni0307" unicode="&#x307;" horiz-adv-x="1" 
d="M-582 1485q87 0 145.5 -58.5t58.5 -145.5t-58.5 -145.5t-145.5 -58.5t-145.5 58.5t-58.5 145.5t58.5 145.5t145.5 58.5z" />
    <glyph glyph-name="uni0308" unicode="&#x308;" horiz-adv-x="1" 
d="M-831 1470q87 0 145.5 -58.5t58.5 -145.5t-58.5 -145.5t-145.5 -58.5t-145.5 58.5t-58.5 145.5t58.5 145.5t145.5 58.5zM-341 1470q87 0 145.5 -58.5t58.5 -145.5t-58.5 -145.5t-145.5 -58.5t-145.5 58.5t-58.5 145.5t58.5 145.5t145.5 58.5z" />
    <glyph glyph-name="uni030A" unicode="&#x30a;" horiz-adv-x="1" 
d="M-583 1062q-119 0 -203 82.5t-84 200.5q0 117 84 200t203 83q120 0 204 -83t84 -200q0 -118 -84 -200.5t-204 -82.5zM-583 1243q41 0 70.5 29.5t29.5 72.5q0 42 -29.5 72t-70.5 30q-40 0 -69.5 -30t-29.5 -72q0 -43 29.5 -72.5t69.5 -29.5z" />
    <glyph glyph-name="uni030B" unicode="&#x30b;" horiz-adv-x="1" 
d="M-536 1103l250 346h358l-270 -346h-338zM-966 1103l221 346h353l-250 -346h-324z" />
    <glyph glyph-name="uni030C" unicode="&#x30c;" horiz-adv-x="1" 
d="M-689 1439l107 -136l106 136h309l-231 -346h-369l-231 346h309z" />
    <glyph glyph-name="uni0312" unicode="&#x312;" horiz-adv-x="1" 
d="M-743 1103l110 430h275l-54 -430h-331z" />
    <glyph glyph-name="uni0326" unicode="&#x326;" horiz-adv-x="1" 
d="M-389 -77l-110 -430h-275l54 430h331z" />
    <glyph glyph-name="uni0327" unicode="&#x327;" horiz-adv-x="1" 
d="M-475 -321h-316l111 328h308z" />
    <glyph glyph-name="uni0328" unicode="&#x328;" horiz-adv-x="1" 
d="M-268 -295q-130 -125 -321 -125q-135 0 -221 58t-86 159q0 45 17.5 84t43 66.5t67.5 54.5t76.5 43.5t84.5 37.5l152 -45q-132 -76 -132 -151q0 -22 14.5 -34.5t39.5 -12.5q42 0 81 36z" />
    <glyph glyph-name="uni1E9E" unicode="&#x1e9e;" horiz-adv-x="1418" 
d="M665 774l187 277q-62 36 -154 36q-111 0 -169 -57t-58 -156v-874h-381v882q0 83 18.5 158t64 146.5t114 123.5t176.5 84t244 32q389 0 608 -275l-260 -364q151 -46 232 -142t81 -231q0 -204 -150 -322t-413 -118q-144 0 -229 20l44 328q60 -12 127 -12q120 0 175 25
t55 79q0 104 -250 104h-62v256z" />
    <glyph glyph-name="uni2007" unicode="&#x2007;" 
 />
    <glyph glyph-name="uni2008" unicode="&#x2008;" horiz-adv-x="601" 
 />
    <glyph glyph-name="uni2009" unicode="&#x2009;" horiz-adv-x="137" 
 />
    <glyph glyph-name="uni200B" unicode="&#x200b;" horiz-adv-x="0" 
 />
    <glyph glyph-name="endash" unicode="&#x2013;" horiz-adv-x="1120" 
d="M1060 388h-1000v286h1000v-286z" />
    <glyph glyph-name="emdash" unicode="&#x2014;" horiz-adv-x="1560" 
d="M1530 388h-1500v286h1500v-286z" />
    <glyph glyph-name="quoteleft" unicode="&#x2018;" horiz-adv-x="590" 
d="M64 746l177 694h294l-88 -694h-383z" />
    <glyph glyph-name="quoteright" unicode="&#x2019;" horiz-adv-x="590" 
d="M526 1440l-177 -694h-294l88 694h383z" />
    <glyph glyph-name="quotesinglbase" unicode="&#x201a;" horiz-adv-x="590" 
d="M526 402l-177 -694h-294l88 694h383z" />
    <glyph glyph-name="quotedblleft" unicode="&#x201c;" horiz-adv-x="1105" 
d="M64 746l177 694h294l-88 -694h-383zM579 746l177 694h294l-88 -694h-383z" />
    <glyph glyph-name="quotedblright" unicode="&#x201d;" horiz-adv-x="1105" 
d="M1041 1440l-177 -694h-294l88 694h383zM526 1440l-177 -694h-294l88 694h383z" />
    <glyph glyph-name="quotedblbase" unicode="&#x201e;" horiz-adv-x="1105" 
d="M1041 402l-177 -694h-294l88 694h383zM526 402l-177 -694h-294l88 694h383z" />
    <glyph glyph-name="bullet" unicode="&#x2022;" horiz-adv-x="953" 
d="M476 901q153 0 262.5 -109t109.5 -262q0 -154 -109.5 -263t-262.5 -109q-154 0 -262.5 109t-108.5 263t108.5 262.5t262.5 108.5z" />
    <glyph glyph-name="guilsinglleft" unicode="&#x2039;" horiz-adv-x="640" 
d="M591 120h-336l-200 411l200 411h336l-200 -411z" />
    <glyph glyph-name="guilsinglright" unicode="&#x203a;" horiz-adv-x="640" 
d="M49 942h336l200 -411l-200 -411h-336l200 411z" />
    <glyph glyph-name="Euro" unicode="&#x20ac;" horiz-adv-x="1400" 
d="M1046 445h-408q46 -70 114 -106.5t147 -36.5q148 0 254 88l168 -284q-178 -132 -417 -132q-246 0 -423 124t-243 347h-160v208h126q-1 7 -1 23v47q0 16 1 24h-126v208h160q66 223 243 347t423 124q242 0 419 -136l-172 -282q-106 90 -253 90q-81 0 -148.5 -37.5
t-113.5 -105.5h410v-208h-478q-1 -8 -1 -24v-23q0 -17 2 -47h477v-208z" />
    <glyph glyph-name="trademark" unicode="&#x2122;" horiz-adv-x="1695" 
d="M1424 740v372l-108 -315h-214l-113 320v-377h-226v660h312l134 -346l132 346h314v-660h-231zM246 740v453h-206v207h640v-207h-206v-453h-228z" />
    <glyph glyph-name="CR" unicode="&#xe001;" horiz-adv-x="410" 
 />
    <glyph glyph-name="eight.lf" unicode="&#xe002;" horiz-adv-x="1261" 
d="M630 1426q149 0 270 -47.5t194 -141.5t73 -217q0 -112 -56.5 -190t-152.5 -123q245 -100 245 -325q0 -125 -78 -219t-207 -141.5t-288 -47.5t-288 47.5t-206.5 141.5t-77.5 219q0 120 66.5 201t177.5 124q-208 98 -208 313q0 123 73 217t193.5 141.5t269.5 47.5zM630 570
q-70 0 -118.5 -38t-48.5 -104q0 -65 48.5 -101.5t118.5 -36.5q72 0 120 36.5t48 101.5q0 66 -48.5 104t-119.5 38zM630 1102q-62 0 -101.5 -32t-39.5 -90t40 -91.5t101 -33.5t101 33.5t40 91.5t-39.5 90t-101.5 32z" />
    <glyph glyph-name="eight.osf" unicode="&#xe003;" horiz-adv-x="1209" 
d="M604 1426q145 0 263.5 -48t189.5 -141.5t71 -216.5q0 -112 -56 -190t-151 -123q111 -43 177 -123.5t66 -201.5q0 -124 -76 -218t-202.5 -142t-281.5 -48t-281 48t-202 142t-76 218q0 120 66 201t176 124q-206 100 -206 313q0 123 71 216.5t189 141.5t263 48zM604 571
q-68 0 -115 -39t-47 -105q0 -67 46.5 -104.5t115.5 -37.5t115.5 37.5t46.5 104.5q0 66 -47 105t-115 39zM604 1107q-59 0 -97 -33t-38 -92q0 -60 38.5 -94.5t96.5 -34.5q59 0 97.5 34.5t38.5 94.5q0 59 -38.5 92t-97.5 33z" />
    <glyph glyph-name="eight.tosf" unicode="&#xe004;" 
d="M600 1426q145 0 263.5 -48t189.5 -141.5t71 -216.5q0 -112 -56 -190t-151 -123q111 -43 177 -123.5t66 -201.5q0 -124 -76 -218t-202.5 -142t-281.5 -48t-281 48t-202 142t-76 218q0 120 66 201t176 124q-206 100 -206 313q0 123 71 216.5t189 141.5t263 48zM600 571
q-68 0 -115 -39t-47 -105q0 -67 46.5 -104.5t115.5 -37.5t115.5 37.5t46.5 104.5q0 66 -47 105t-115 39zM600 1107q-59 0 -97 -33t-38 -92q0 -60 38.5 -94.5t96.5 -34.5q59 0 97.5 34.5t38.5 94.5q0 59 -38.5 92t-97.5 33z" />
    <glyph glyph-name="five.lf" unicode="&#xe005;" horiz-adv-x="1167" 
d="M1017 1063h-532l-5 -171h118q241 0 374.5 -112t133.5 -310q0 -223 -152.5 -359.5t-396.5 -136.5q-156 0 -291 51t-222 131l168 279q54 -47 151 -87.5t192 -40.5q82 0 125.5 35t43.5 104q0 127 -216 127h-355l19 827h845v-337z" />
    <glyph glyph-name="five.osf" unicode="&#xe006;" horiz-adv-x="1140" 
d="M1004 756h-535l-5 -178h122q240 0 373 -112.5t133 -309.5q0 -223 -151.5 -358.5t-394.5 -135.5q-156 0 -291 51t-221 133l167 273q55 -48 151.5 -88.5t191.5 -40.5q85 0 129 36.5t44 105.5q0 132 -221 132h-353l18 824h843v-332z" />
    <glyph glyph-name="five.tosf" unicode="&#xe007;" 
d="M1022 756h-535l-5 -178h122q240 0 373 -112.5t133 -309.5q0 -223 -151.5 -358.5t-394.5 -135.5q-156 0 -291 51t-221 133l167 273q55 -48 151.5 -88.5t191.5 -40.5q85 0 129 36.5t44 105.5q0 132 -221 132h-353l18 824h843v-332z" />
    <glyph glyph-name="four.lf" unicode="&#xe008;" horiz-adv-x="1196" 
d="M1010 566h159v-341h-159v-225h-369v225h-614v253l429 922h402l-391 -834h174v124l110 241h259v-365z" />
    <glyph glyph-name="four.osf" unicode="&#xe009;" horiz-adv-x="1172" 
d="M969 335h182v-335h-182v-312h-362l-1 312h-585v250l364 838h385l-331 -753h167v130l85 193h278v-323z" />
    <glyph glyph-name="four.tosf" unicode="&#xe00a;" 
d="M991 335h182v-335h-182v-312h-362l-1 312h-585v250l364 838h385l-331 -753h167v130l85 193h278v-323z" />
    <glyph glyph-name="nine.lf" unicode="&#xe00b;" horiz-adv-x="1205" 
d="M548 462q-121 1 -218 38.5t-159 101t-94.5 147t-32.5 179.5q0 142 73 256.5t201 178t286 63.5q157 0 285 -62.5t201.5 -173.5t73.5 -249q0 -189 -146 -406l-359 -535h-442zM604 766q75 0 123 47t48 119q0 74 -48 121t-123 47t-123.5 -47.5t-48.5 -120.5q0 -72 48.5 -119
t123.5 -47z" />
    <glyph glyph-name="nine.osf" unicode="&#xe00c;" horiz-adv-x="1181" 
d="M540 152q-121 1 -218 38t-159.5 100.5t-95.5 147t-33 180.5q0 142 73 256t200.5 177.5t284.5 63.5q238 0 397.5 -138t159.5 -346q0 -189 -145 -405l-361 -537h-434zM592 451q77 0 126.5 48.5t49.5 122.5q0 75 -49.5 124t-126.5 49t-127.5 -49t-50.5 -124
q0 -74 50.5 -122.5t127.5 -48.5z" />
    <glyph glyph-name="nine.tosf" unicode="&#xe00d;" 
d="M555 152q-121 1 -218 38t-159.5 100.5t-95.5 147t-33 180.5q0 142 73 256t200.5 177.5t284.5 63.5q238 0 397.5 -138t159.5 -346q0 -189 -145 -405l-361 -537h-434zM607 451q77 0 126.5 48.5t49.5 122.5q0 75 -49.5 124t-126.5 49t-127.5 -49t-50.5 -124
q0 -74 50.5 -122.5t127.5 -48.5z" />
    <glyph glyph-name="one.lf" unicode="&#xe00e;" horiz-adv-x="807" 
d="M698 0h-369v920l-295 -105v358l664 249v-1422z" />
    <glyph glyph-name="one.osf" unicode="&#xe00f;" horiz-adv-x="770" 
d="M685 0h-363v648l-293 -85v348l656 207v-1118z" />
    <glyph glyph-name="one.tosf" unicode="&#xe010;" 
d="M454 330v337l-294 -86v351l657 186v-788h282v-330h-933v330h288z" />
    <glyph glyph-name="seven.lf" unicode="&#xe011;" horiz-adv-x="1109" 
d="M1075 1110l-529 -1110h-442l533 1059h-596v341h1034v-290z" />
    <glyph glyph-name="seven.osf" unicode="&#xe012;" horiz-adv-x="1095" 
d="M1063 803l-533 -1115h-434l536 1065h-600v335h1031v-285z" />
    <glyph glyph-name="seven.tosf" unicode="&#xe013;" 
d="M1123 803l-533 -1115h-434l536 1065h-600v335h1031v-285z" />
    <glyph glyph-name="six.lf" unicode="&#xe014;" horiz-adv-x="1205" 
d="M657 938q240 -4 372 -135.5t132 -330.5q0 -142 -73.5 -256.5t-201.5 -178t-286 -63.5q-156 0 -284 62.5t-201.5 173.5t-73.5 249q0 189 146 406l359 535h442zM600 634q-75 0 -122.5 -47t-47.5 -119q0 -74 47.5 -121t122.5 -47t124 47.5t49 120.5q0 71 -49 118.5
t-124 47.5z" />
    <glyph glyph-name="six.osf" unicode="&#xe015;" horiz-adv-x="1181" 
d="M640 936q121 -1 218 -38t159.5 -100.5t96 -147t33.5 -180.5q0 -142 -73 -255.5t-200.5 -177t-284.5 -63.5q-156 0 -283.5 62t-200.5 173t-73 249q0 190 145 404l361 538h434zM589 637q-77 0 -126.5 -48t-49.5 -122q0 -75 49.5 -124t126.5 -49t127.5 49t50.5 124
q0 74 -50.5 122t-127.5 48z" />
    <glyph glyph-name="six.tosf" unicode="&#xe016;" 
d="M644 936q121 -1 218 -38t159.5 -100.5t96 -147t33.5 -180.5q0 -142 -73 -255.5t-200.5 -177t-284.5 -63.5q-156 0 -283.5 62t-200.5 173t-73 249q0 190 145 404l361 538h434zM593 637q-77 0 -126.5 -48t-49.5 -122q0 -75 49.5 -124t126.5 -49t127.5 49t50.5 124
q0 74 -50.5 122t-127.5 48z" />
    <glyph glyph-name="three.lf" unicode="&#xe017;" horiz-adv-x="1151" 
d="M531 1426q236 0 385 -112t149 -294q0 -218 -199 -315q110 -45 168.5 -125.5t58.5 -188.5q0 -103 -46 -184t-125 -131t-177 -76t-207 -26q-328 0 -504 207l204 240q117 -120 279 -120q84 0 138.5 32t54.5 92q0 58 -62 90t-156 32h-153v320h157q83 0 136.5 31.5t53.5 87.5
t-45 84.5t-124 28.5q-161 0 -283 -126l-198 244q199 209 495 209z" />
    <glyph glyph-name="three.osf" unicode="&#xe018;" horiz-adv-x="1111" 
d="M514 1115q232 0 378 -111.5t146 -294.5q0 -221 -197 -315q109 -45 167 -125.5t58 -188.5q0 -103 -45 -184t-122.5 -131t-173.5 -76t-204 -26q-319 0 -494 206l195 229q119 -124 278 -124q83 0 136 33.5t53 97.5q0 63 -60.5 98t-152.5 35h-150v315h153q83 0 135 32.5
t52 90.5q0 57 -44.5 87t-121.5 30q-166 0 -278 -127l-193 239q193 210 485 210z" />
    <glyph glyph-name="three.tosf" unicode="&#xe019;" 
d="M548 1115q232 0 378 -111.5t146 -294.5q0 -221 -197 -315q109 -45 167 -125.5t58 -188.5q0 -103 -45 -184t-122.5 -131t-173.5 -76t-204 -26q-319 0 -494 206l195 229q119 -124 278 -124q83 0 136 33.5t53 97.5q0 63 -60.5 98t-152.5 35h-150v315h153q83 0 135 32.5
t52 90.5q0 57 -44.5 87t-121.5 30q-166 0 -278 -127l-193 239q193 210 485 210z" />
    <glyph glyph-name="two.lf" unicode="&#xe01a;" horiz-adv-x="1153" 
d="M44 1174q216 252 537 252q225 0 360.5 -123.5t135.5 -330.5q0 -122 -51.5 -221t-181.5 -220l-200 -190h461v-341h-982v289l476 449q95 90 95 187q0 66 -45.5 106.5t-113.5 40.5q-80 0 -146.5 -40.5t-135.5 -112.5z" />
    <glyph glyph-name="two.osf" unicode="&#xe01b;" horiz-adv-x="1126" 
d="M34 884q202 231 515 231q218 0 351 -98.5t133 -264.5q0 -122 -72 -217.5t-238 -183.5l-61 -32h427v-319h-987v276l363 212q114 67 155 111t41 84q0 53 -46 82t-113 29q-137 0 -276 -148z" />
    <glyph glyph-name="two.tosf" unicode="&#xe01c;" 
d="M66 884q202 231 515 231q218 0 351 -98.5t133 -264.5q0 -122 -72 -217.5t-238 -183.5l-61 -32h427v-319h-987v276l363 212q114 67 155 111t41 84q0 53 -46 82t-113 29q-137 0 -276 -148z" />
    <glyph glyph-name="uni030C.alt001" unicode="&#xe01d;" horiz-adv-x="1" 
d="M-749 940v500h334l-70 -500h-264z" />
    <glyph glyph-name="uni0328.alt001" unicode="&#xe01e;" horiz-adv-x="1" 
d="M-298 -318q-45 -40 -123 -71t-172 -31q-116 0 -194 55t-78 152q0 55 28.5 104.5t75.5 86t88 59t86 41.5l115 -69q-114 -49 -114 -117q0 -52 61 -52q31 0 69 27z" />
    <glyph glyph-name="uni0328.alt002" unicode="&#xe01f;" horiz-adv-x="1" 
d="M-425 29q-162 -70 -162 -142q0 -22 14.5 -34.5t39.5 -12.5q42 0 81 36l184 -171q-130 -125 -321 -125q-135 0 -221 58t-86 159q0 45 17.5 84t43 66.5t67.5 54.5t76.5 43.5t84.5 37.5z" />
    <glyph glyph-name="uni0328.alt003" unicode="&#xe020;" horiz-adv-x="1" 
d="M-298 -318q-45 -40 -123 -71t-172 -31q-116 0 -194 57.5t-78 159.5q0 166 298 281l115 -69q-134 -48 -134 -117q0 -52 61 -52q31 0 69 27z" />
    <glyph glyph-name="uni0328.alt004" unicode="&#xe021;" horiz-adv-x="1" 
d="M-268 -295q-130 -125 -321 -125q-135 0 -221 58t-86 159q0 45 17.5 84t43 66.5t67.5 54.5t76.5 43.5t84.5 37.5l182 -54q-162 -70 -162 -142q0 -22 14.5 -34.5t39.5 -12.5q42 0 81 36z" />
    <glyph glyph-name="zero.lf" unicode="&#xe022;" horiz-adv-x="1392" 
d="M696 1426q132 0 246.5 -50t199.5 -142t133.5 -229.5t48.5 -304.5t-48.5 -304.5t-133.5 -229.5t-199.5 -142t-246.5 -50t-246.5 50t-199 142t-133.5 230t-49 304t49 304t133.5 230t199 142t246.5 50zM696 1072q-108 0 -176 -97.5t-68 -274.5t68 -274.5t176 -97.5t176 97.5
t68 274.5t-68 274.5t-176 97.5z" />
    <glyph glyph-name="zero.osf" unicode="&#xe023;" horiz-adv-x="1296" 
d="M648 1115q168 0 303 -70t213.5 -201t78.5 -301t-78.5 -300.5t-213.5 -199.5t-303 -69q-167 0 -302 69t-214 199.5t-79 300.5t79 301t214 201t302 70zM648 779q-101 0 -168.5 -66.5t-67.5 -168.5q0 -101 67.5 -167.5t168.5 -66.5t168.5 66.5t67.5 167.5q0 102 -67.5 168.5
t-168.5 66.5z" />
    <glyph glyph-name="zero.tosf" unicode="&#xe024;" 
d="M600 1115q117 0 218.5 -39.5t176.5 -112t117.5 -181t42.5 -239.5q0 -174 -73.5 -304.5t-199 -197.5t-282.5 -67q-156 0 -281.5 67t-199.5 198t-74 304q0 174 74 305.5t199.5 199t281.5 67.5zM600 790q-85 0 -140.5 -67t-55.5 -180q0 -112 55.5 -178t140.5 -66t140.5 66
t55.5 178q0 113 -55.5 180t-140.5 67z" />
    <glyph glyph-name="uniFB00" unicode="&#xfb00;" horiz-adv-x="1688" 
d="M794 677h-252v-677h-356v677h-160v314h160v39q0 214 108 325t287 111q212 0 358 -117l-162 -254q-32 15 -46 21t-41 12.5t-55 6.5q-48 0 -70.5 -27t-22.5 -87v-30h252v-314zM1623 677h-252v-677h-356v677h-160v314h160v39q0 214 108 325t287 111q212 0 358 -117
l-162 -254q-32 15 -46 21t-41 12.5t-55 6.5q-48 0 -70.5 -27t-22.5 -87v-30h252v-314z" />
    <glyph glyph-name="fi" unicode="&#xfb01;" horiz-adv-x="1389" 
d="M794 677h-252v-677h-356v677h-160v314h160v39q0 214 108 325t287 111q212 0 358 -117l-162 -254q-32 15 -46 21t-41 12.5t-55 6.5q-48 0 -70.5 -27t-22.5 -87v-30h252v-314zM1302 0h-356v991h356v-991zM1123 1485q87 0 145.5 -58.5t58.5 -145.5t-58.5 -145.5
t-145.5 -58.5t-145.5 58.5t-58.5 145.5t58.5 145.5t145.5 58.5z" />
    <glyph glyph-name="fl" unicode="&#xfb02;" horiz-adv-x="1389" 
d="M794 677h-252v-677h-356v677h-160v314h160v39q0 214 108 325t287 111q212 0 358 -117l-162 -254q-32 15 -46 21t-41 12.5t-55 6.5q-48 0 -70.5 -27t-22.5 -87v-30h252v-314zM1302 0h-356v1440h356v-1440z" />
    <glyph glyph-name="uniFB03" unicode="&#xfb03;" horiz-adv-x="2218" 
d="M794 677h-252v-677h-356v677h-160v314h160v39q0 214 108 325t287 111q212 0 358 -117l-162 -254q-32 15 -46 21t-41 12.5t-55 6.5q-48 0 -70.5 -27t-22.5 -87v-30h252v-314zM1623 677h-252v-677h-356v677h-160v314h160v39q0 214 108 325t287 111q212 0 358 -117
l-162 -254q-32 15 -46 21t-41 12.5t-55 6.5q-48 0 -70.5 -27t-22.5 -87v-30h252v-314zM2131 0h-356v991h356v-991zM1952 1485q87 0 145.5 -58.5t58.5 -145.5t-58.5 -145.5t-145.5 -58.5t-145.5 58.5t-58.5 145.5t58.5 145.5t145.5 58.5z" />
    <glyph glyph-name="uniFB04" unicode="&#xfb04;" horiz-adv-x="2218" 
d="M794 677h-252v-677h-356v677h-160v314h160v39q0 214 108 325t287 111q212 0 358 -117l-162 -254q-32 15 -46 21t-41 12.5t-55 6.5q-48 0 -70.5 -27t-22.5 -87v-30h252v-314zM1623 677h-252v-677h-356v677h-160v314h160v39q0 214 108 325t287 111q212 0 358 -117
l-162 -254q-32 15 -46 21t-41 12.5t-55 6.5q-48 0 -70.5 -27t-22.5 -87v-30h252v-314zM2131 0h-356v1440h356v-1440z" />
    <glyph glyph-name="uniFB05" unicode="&#xfb05;" horiz-adv-x="1433" 
d="M1337 677h-322v-232q0 -140 133 -140q61 0 161 60l119 -276q-81 -57 -166 -86t-206 -29q-203 0 -300 112t-97 304v287h-114v314h114v28q0 64 -29 98t-81 34t-81 -34t-29 -98v-1019h-356v1024q0 110 34.5 195.5t97.5 139t147.5 80.5t186.5 27q137 0 240.5 -47
t164.5 -148.5t61 -247.5v-32h322v-314z" />
    <glyph glyph-name="uniFB06" unicode="&#xfb06;" horiz-adv-x="1980" 
d="M862 663q-190 73 -334 73q-49 0 -67.5 -9t-18.5 -28q0 -11 6.5 -18t24 -12t31.5 -8t45.5 -7.5t50.5 -7.5l60 -10q316 -52 316 -304q0 -171 -121.5 -264.5t-339.5 -93.5q-148 0 -272.5 25t-198.5 70l114 278q165 -90 359 -90q58 0 80.5 10t22.5 32t-30.5 32t-120.5 23
l-39 6q-184 28 -269.5 105t-85.5 215q0 163 113.5 250.5t322.5 87.5q121 0 208 -15.5t228 -61.5zM1884 677h-322v-232q0 -140 133 -140q61 0 161 60l119 -276q-81 -57 -166 -86t-206 -29q-203 0 -300 112t-97 304v287h-180v314h180v284h356v-284h322v-314z" />
    <glyph glyph-name="uniFEFF" unicode="&#xfeff;" horiz-adv-x="0" 
 />
    </font>
</defs>
</svg>
